<svg xmlns="http://www.w3.org/2000/svg" xmlns:xlink="http://www.w3.org/1999/xlink" width="1366" zoomAndPan="magnify" viewBox="0 0 1024.5 576" height="768" preserveAspectRatio="xMidYMid meet" version="1.0"><defs><clipPath id="7a4091da0e"><path d="M 297 195 L 757.550781 195 L 757.550781 484 L 297 484 Z M 297 195 " clip-rule="nonzero"/></clipPath><clipPath id="a33c47f03a"><path d="M 199.820312 57 L 370 57 L 370 227 L 199.820312 227 Z M 199.820312 57 " clip-rule="nonzero"/></clipPath></defs><path fill="#81a69b" d="M 393.796875 459.074219 C 393.796875 459.074219 370.441406 525.027344 371.628906 571.15625 L 629.210938 571.910156 C 629.210938 571.910156 633.035156 527.292969 602.457031 456.265625 C 573.355469 388.65625 393.796875 459.074219 393.796875 459.074219 Z M 393.796875 459.074219 " fill-opacity="1" fill-rule="evenodd"/><path fill="#956368" d="M 495.617188 7.792969 C 495.617188 7.792969 470.953125 0.0429688 450.734375 14.898438 C 430.519531 29.75 419.515625 49.40625 415.558594 67.523438 C 411.605469 85.648438 411.40625 103.734375 421.066406 93.964844 C 421.066406 93.964844 420.472656 119.996094 405.398438 140 C 390.328125 160.011719 389.226562 171.710938 389.296875 179.511719 C 389.355469 185.914062 391.804688 190.238281 393.921875 184.710938 C 394.589844 182.972656 396.238281 179.15625 396.898438 180.054688 C 396.898438 180.054688 397.902344 190.160156 403.859375 196.074219 C 409.816406 201.988281 412.75 196.96875 414.773438 191.363281 C 414.773438 191.363281 417.96875 201.222656 437.453125 204.015625 C 456.9375 206.800781 558.039062 200.972656 558.039062 200.972656 C 558.039062 200.972656 578.488281 197.328125 579.542969 177.011719 C 579.542969 177.011719 580.160156 171.027344 582.527344 178.257812 C 585.425781 187.132812 582.226562 193.585938 585.511719 194.03125 C 588.796875 194.476562 602.632812 190.878906 606.996094 179.382812 C 611.355469 167.886719 609.292969 167.953125 614.027344 172.972656 C 615.496094 174.53125 617.121094 177.304688 618.304688 176.585938 C 620.929688 174.992188 622.144531 165.820312 620.09375 156.0625 C 617.121094 141.910156 608.835938 130.464844 598.101562 117.085938 C 587.363281 103.703125 582.851562 86.898438 579.125 70.179688 C 574.761719 50.589844 564.390625 25.082031 543.566406 13.136719 C 525.9375 3.023438 507.289062 3.058594 495.617188 7.792969 Z M 495.617188 7.792969 " fill-opacity="1" fill-rule="evenodd"/><path fill="#f5c2a9" d="M 430.25 80.671875 C 430.25 80.671875 434.027344 105.089844 436.167969 122.878906 C 438.3125 140.667969 440.085938 160.101562 468.722656 175.015625 C 468.722656 175.015625 471.910156 191.71875 455.414062 197.40625 L 445.359375 225.765625 L 480.492188 282.085938 L 547.269531 227.546875 L 549.003906 195.183594 C 549.003906 195.183594 531.714844 190.167969 532.109375 176.789062 C 532.503906 163.414062 537.386719 136.136719 537.386719 136.136719 C 537.386719 136.136719 546.898438 143.34375 552.691406 131.671875 C 559.042969 118.863281 561.625 105.898438 555.351562 97.753906 C 550.46875 91.402344 541.59375 92.035156 536.996094 102.59375 C 536.996094 102.59375 524.890625 64.984375 492.894531 39.484375 C 492.894531 39.484375 482.101562 58.882812 466.894531 67.640625 C 450.855469 76.882812 454.121094 68.503906 454.695312 64.097656 C 454.695312 64.097656 445.34375 75.636719 430.25 80.671875 Z M 430.25 80.671875 " fill-opacity="1" fill-rule="evenodd"/><g clip-path="url(#7a4091da0e)"><path fill="#eb9c62" d="M 455.414062 197.40625 C 455.414062 197.40625 463.035156 232.882812 483.449219 266.664062 C 483.449219 266.664062 518.8125 242.132812 549.003906 195.183594 C 549.003906 195.183594 597.738281 203.28125 623.945312 221.789062 C 633.410156 228.46875 661.273438 247.0625 683.925781 259.441406 C 704.527344 270.699219 724.574219 278.015625 731.90625 282.085938 C 747.292969 290.625 754.339844 299.296875 755.925781 309.023438 C 757.507812 318.753906 757.53125 323.410156 755.109375 329.175781 C 752.691406 334.941406 747.039062 346.132812 739.75 349.785156 C 732.457031 353.433594 718.390625 360.277344 709.253906 360 C 700.113281 359.722656 626.351562 331.902344 611.6875 329.414062 C 611.6875 329.414062 607.671875 334.746094 605.351562 344.714844 C 602.804688 355.636719 594.304688 397.632812 598.324219 418.226562 C 602.992188 442.121094 610.605469 461.976562 608.582031 464.636719 C 606.554688 467.292969 558.296875 487.480469 500.035156 483.097656 C 441.78125 478.71875 391.28125 465.726562 390.441406 461.546875 C 389.601562 457.363281 396.570312 428.667969 394.964844 406.628906 C 394.964844 406.628906 378.816406 430.285156 368.710938 433.867188 C 358.601562 437.445312 342.113281 436.164062 329.308594 431.453125 C 316.507812 426.742188 306.320312 415.058594 299.640625 404.136719 C 292.960938 393.214844 303.363281 377.675781 306.726562 375.632812 C 310.085938 373.59375 350.324219 336.375 352.855469 330.105469 C 355.390625 323.832031 365.320312 263.445312 377.066406 243.582031 C 390.988281 220.03125 406.628906 208.113281 455.414062 197.40625 Z M 455.414062 197.40625 " fill-opacity="1" fill-rule="evenodd"/></g><path fill="#956368" d="M 543.304688 110.53125 C 543.609375 109.386719 544.488281 108.390625 545.457031 107.988281 C 545.90625 107.800781 546.386719 107.738281 546.785156 108.003906 C 547.082031 108.203125 547.308594 108.539062 547.5 109.011719 C 547.882812 109.984375 547.984375 111.0625 548.039062 112.101562 C 548.140625 114.074219 547.300781 119.96875 545.359375 123.023438 C 544.890625 123.753906 544.402344 124.339844 543.757812 124.433594 C 543.105469 124.535156 542.429688 124.089844 541.585938 123.179688 C 541.117188 122.671875 540.320312 122.640625 539.8125 123.113281 C 539.304688 123.582031 539.273438 124.382812 539.746094 124.886719 C 541.367188 126.644531 542.875 127.113281 544.136719 126.921875 C 545.40625 126.726562 546.558594 125.8125 547.476562 124.371094 C 549.6875 120.902344 550.664062 114.210938 550.546875 111.96875 C 550.476562 110.664062 550.320312 109.308594 549.832031 108.082031 C 549.1875 106.464844 548.140625 105.675781 547.035156 105.414062 C 546.015625 105.171875 544.890625 105.386719 543.867188 105.976562 C 542.507812 106.761719 541.324219 108.21875 540.875 109.882812 C 540.695312 110.550781 541.097656 111.238281 541.765625 111.421875 C 542.4375 111.597656 543.125 111.199219 543.304688 110.53125 Z M 543.304688 110.53125 " fill-opacity="1" fill-rule="evenodd"/><path fill="#956368" d="M 471.015625 177.074219 C 471.015625 177.074219 480.386719 181.535156 492.230469 176.671875 C 503.613281 171.992188 515.3125 162.679688 523.4375 152.6875 C 523.875 152.148438 523.789062 151.359375 523.253906 150.921875 C 522.714844 150.484375 521.921875 150.5625 521.484375 151.105469 C 513.617188 160.78125 502.300781 169.816406 491.273438 174.34375 C 480.5625 178.746094 472.085938 174.800781 472.085938 174.800781 C 471.460938 174.503906 470.710938 174.773438 470.414062 175.402344 C 470.121094 176.03125 470.386719 176.78125 471.015625 177.074219 Z M 471.015625 177.074219 " fill-opacity="1" fill-rule="evenodd"/><path fill="#956368" d="M 468.929688 95.761719 C 468.929688 95.761719 470.574219 104.835938 465.296875 115.230469 C 463.507812 118.753906 463.34375 121.265625 463.96875 123.027344 C 464.605469 124.820312 466.0625 125.96875 467.882812 126.648438 C 470.207031 127.515625 473.144531 127.597656 475.160156 127.632812 C 475.855469 127.644531 476.425781 127.089844 476.4375 126.394531 C 476.449219 125.703125 475.894531 125.128906 475.203125 125.117188 C 473.421875 125.089844 470.816406 125.0625 468.761719 124.292969 C 467.664062 123.882812 466.722656 123.265625 466.335938 122.183594 C 465.867188 120.863281 466.191406 119.015625 467.535156 116.367188 C 473.246094 105.132812 471.402344 95.308594 471.402344 95.308594 C 471.273438 94.625 470.617188 94.175781 469.9375 94.300781 C 469.253906 94.425781 468.804688 95.082031 468.929688 95.761719 Z M 468.929688 95.761719 " fill-opacity="1" fill-rule="evenodd"/><path fill="#956368" d="M 468.167969 144.316406 C 468.167969 144.316406 480.332031 150.347656 497.546875 138.152344 C 498.113281 137.753906 498.25 136.96875 497.847656 136.402344 C 497.449219 135.835938 496.664062 135.703125 496.097656 136.105469 C 480.332031 147.269531 469.261719 142.054688 469.261719 142.054688 C 468.636719 141.75 467.886719 142.015625 467.582031 142.636719 C 467.28125 143.261719 467.542969 144.015625 468.167969 144.316406 Z M 468.167969 144.316406 " fill-opacity="1" fill-rule="evenodd"/><path fill="#956368" d="M 441.335938 86.222656 C 441.335938 86.222656 446.648438 79.714844 454.613281 81.519531 C 455.289062 81.675781 455.960938 81.25 456.117188 80.574219 C 456.269531 79.898438 455.84375 79.222656 455.167969 79.070312 C 445.710938 76.921875 439.394531 84.628906 439.394531 84.628906 C 438.953125 85.167969 439.03125 85.960938 439.566406 86.398438 C 440.105469 86.835938 440.898438 86.757812 441.335938 86.222656 Z M 441.335938 86.222656 " fill-opacity="1" fill-rule="evenodd"/><path fill="#956368" d="M 489.621094 78.378906 C 489.621094 78.378906 498.132812 74.160156 506.375 79.996094 C 506.941406 80.398438 507.726562 80.261719 508.128906 79.695312 C 508.527344 79.128906 508.394531 78.347656 507.828125 77.945312 C 498.320312 71.214844 488.5 76.132812 488.5 76.132812 C 487.878906 76.441406 487.625 77.195312 487.933594 77.816406 C 488.246094 78.4375 489 78.6875 489.621094 78.378906 Z M 489.621094 78.378906 " fill-opacity="1" fill-rule="evenodd"/><path fill="#956368" d="M 494.832031 97.0625 C 494.832031 97.0625 498.542969 92.320312 504.867188 94.609375 C 505.519531 94.84375 506.242188 94.507812 506.476562 93.855469 C 506.710938 93.203125 506.375 92.480469 505.722656 92.246094 C 497.585938 89.304688 492.839844 95.527344 492.839844 95.527344 C 492.417969 96.078125 492.519531 96.867188 493.070312 97.289062 C 493.617188 97.714844 494.40625 97.609375 494.832031 97.0625 Z M 494.832031 97.0625 " fill-opacity="1" fill-rule="evenodd"/><path fill="#956368" d="M 455.710938 95.75 C 455.710938 96.136719 455.6875 96.519531 455.640625 96.898438 C 455.597656 97.277344 455.527344 97.644531 455.4375 98 C 455.347656 98.355469 455.238281 98.695312 455.109375 99.015625 C 454.980469 99.335938 454.832031 99.632812 454.667969 99.90625 C 454.5 100.175781 454.320312 100.421875 454.128906 100.636719 C 453.933594 100.847656 453.726562 101.03125 453.511719 101.179688 C 453.296875 101.324219 453.074219 101.4375 452.84375 101.511719 C 452.613281 101.585938 452.382812 101.625 452.148438 101.625 C 451.914062 101.625 451.683594 101.585938 451.453125 101.511719 C 451.226562 101.4375 451.003906 101.324219 450.785156 101.179688 C 450.570312 101.03125 450.367188 100.847656 450.171875 100.636719 C 449.976562 100.421875 449.796875 100.175781 449.632812 99.90625 C 449.464844 99.632812 449.316406 99.335938 449.1875 99.015625 C 449.058594 98.695312 448.949219 98.355469 448.859375 98 C 448.769531 97.644531 448.703125 97.277344 448.65625 96.898438 C 448.609375 96.519531 448.589844 96.136719 448.589844 95.75 C 448.589844 95.367188 448.609375 94.984375 448.65625 94.605469 C 448.703125 94.226562 448.769531 93.859375 448.859375 93.503906 C 448.949219 93.148438 449.058594 92.808594 449.1875 92.488281 C 449.316406 92.167969 449.464844 91.871094 449.632812 91.597656 C 449.796875 91.324219 449.976562 91.082031 450.171875 90.867188 C 450.367188 90.652344 450.570312 90.472656 450.785156 90.324219 C 451.003906 90.175781 451.226562 90.066406 451.453125 89.988281 C 451.683594 89.914062 451.914062 89.878906 452.148438 89.878906 C 452.382812 89.878906 452.613281 89.914062 452.84375 89.988281 C 453.074219 90.066406 453.296875 90.175781 453.511719 90.324219 C 453.726562 90.472656 453.933594 90.652344 454.128906 90.867188 C 454.320312 91.082031 454.5 91.324219 454.667969 91.597656 C 454.832031 91.871094 454.980469 92.167969 455.109375 92.488281 C 455.238281 92.808594 455.347656 93.148438 455.4375 93.503906 C 455.527344 93.859375 455.597656 94.226562 455.640625 94.605469 C 455.6875 94.984375 455.710938 95.367188 455.710938 95.75 Z M 455.710938 95.75 " fill-opacity="1" fill-rule="nonzero"/><path fill="#956368" d="M 708.09375 136.898438 L 724.851562 125.554688 C 725.425781 125.164062 725.578125 124.382812 725.1875 123.808594 C 724.800781 123.234375 724.015625 123.082031 723.441406 123.472656 L 706.6875 134.820312 C 706.113281 135.207031 705.960938 135.988281 706.351562 136.5625 C 706.738281 137.140625 707.523438 137.289062 708.09375 136.898438 Z M 708.09375 136.898438 " fill-opacity="1" fill-rule="evenodd"/><path fill="#956368" d="M 712.679688 149.367188 L 730.667969 149.085938 C 731.363281 149.074219 731.914062 148.5 731.902344 147.808594 C 731.894531 147.117188 731.324219 146.5625 730.628906 146.574219 L 712.640625 146.855469 C 711.949219 146.867188 711.394531 147.4375 711.40625 148.132812 C 711.417969 148.824219 711.988281 149.378906 712.679688 149.367188 Z M 712.679688 149.367188 " fill-opacity="1" fill-rule="evenodd"/><path fill="#956368" d="M 708.652344 163.570312 L 728.453125 169.847656 C 729.117188 170.058594 729.824219 169.691406 730.03125 169.027344 C 730.242188 168.367188 729.875 167.664062 729.214844 167.453125 L 709.414062 161.171875 C 708.753906 160.964844 708.042969 161.332031 707.835938 161.992188 C 707.625 162.652344 707.992188 163.359375 708.652344 163.570312 Z M 708.652344 163.570312 " fill-opacity="1" fill-rule="evenodd"/><path fill="#956368" d="M 440.417969 209.078125 C 440.417969 209.078125 425.378906 239.859375 425.957031 268.214844 C 425.957031 268.21875 425.957031 268.21875 425.957031 268.21875 C 425.957031 268.21875 426 270.074219 426.824219 271.722656 C 427.453125 272.972656 428.5 274.089844 430.167969 274.433594 C 431.179688 274.644531 432.460938 274.570312 434.070312 273.945312 C 436.136719 273.140625 438.859375 271.371094 442.40625 268.050781 C 446.3125 264.386719 449.953125 260.371094 453.652344 257.925781 C 455.875 256.453125 458.109375 255.558594 460.460938 255.847656 C 462.429688 256.09375 464.453125 257.167969 466.617188 259.300781 C 468.960938 261.609375 471.421875 265.101562 474.078125 270.09375 C 474.402344 270.707031 475.164062 270.9375 475.777344 270.613281 C 476.390625 270.289062 476.621094 269.523438 476.296875 268.914062 C 470.535156 258.082031 465.402344 253.929688 460.765625 253.359375 C 457.84375 252.996094 455.035156 254 452.261719 255.832031 C 448.460938 258.34375 444.703125 262.453125 440.6875 266.21875 C 437.988281 268.746094 435.828125 270.3125 434.089844 271.1875 C 432.617188 271.925781 431.519531 272.148438 430.679688 271.976562 C 429.855469 271.804688 429.378906 271.210938 429.070312 270.597656 C 428.503906 269.460938 428.46875 268.1875 428.46875 268.164062 C 427.902344 240.355469 442.671875 210.183594 442.671875 210.183594 C 442.976562 209.5625 442.71875 208.808594 442.097656 208.503906 C 441.472656 208.199219 440.71875 208.457031 440.417969 209.078125 Z M 440.417969 209.078125 " fill-opacity="1" fill-rule="evenodd"/><path fill="#956368" d="M 565.339844 209.570312 C 565.339844 209.570312 563 257.546875 557.78125 271.253906 C 557.191406 272.800781 556.566406 273.933594 555.886719 274.703125 C 555.347656 275.308594 554.796875 275.65625 554.195312 275.753906 C 552.773438 275.984375 551.269531 275.011719 549.589844 273.59375 C 545.554688 270.1875 540.992188 264.003906 536.234375 259.796875 C 532.042969 256.089844 528.191406 253.429688 523.550781 252.996094 C 520.050781 252.671875 516.078125 253.59375 511.140625 256.40625 C 506.429688 259.089844 500.785156 263.523438 493.734375 270.253906 C 493.234375 270.730469 493.214844 271.527344 493.691406 272.03125 C 494.171875 272.53125 494.96875 272.550781 495.46875 272.070312 C 502.324219 265.527344 507.800781 261.195312 512.382812 258.589844 C 516.738281 256.109375 520.230469 255.210938 523.320312 255.5 C 527.457031 255.886719 530.832031 258.375 534.570312 261.679688 C 537.972656 264.6875 541.273438 268.71875 544.351562 272 C 546.527344 274.316406 548.609375 276.265625 550.53125 277.328125 C 552.058594 278.175781 553.519531 278.488281 554.878906 278.179688 C 556.785156 277.753906 558.648438 276.03125 560.128906 272.148438 C 565.417969 258.269531 567.847656 209.695312 567.847656 209.695312 C 567.882812 209 567.347656 208.414062 566.65625 208.378906 C 565.964844 208.34375 565.375 208.878906 565.339844 209.570312 Z M 565.339844 209.570312 " fill-opacity="1" fill-rule="evenodd"/><path fill="#956368" d="M 485.339844 303.671875 C 485.339844 304.03125 485.304688 304.390625 485.234375 304.746094 C 485.164062 305.101562 485.058594 305.445312 484.921875 305.78125 C 484.78125 306.117188 484.613281 306.433594 484.410156 306.734375 C 484.210938 307.035156 483.980469 307.3125 483.726562 307.570312 C 483.46875 307.824219 483.191406 308.054688 482.890625 308.253906 C 482.589844 308.457031 482.273438 308.625 481.9375 308.765625 C 481.601562 308.902344 481.257812 309.007812 480.902344 309.078125 C 480.546875 309.148438 480.1875 309.183594 479.828125 309.183594 C 479.464844 309.183594 479.105469 309.148438 478.75 309.078125 C 478.394531 309.007812 478.050781 308.902344 477.714844 308.765625 C 477.382812 308.625 477.0625 308.457031 476.761719 308.253906 C 476.460938 308.054688 476.183594 307.824219 475.925781 307.570312 C 475.671875 307.3125 475.441406 307.035156 475.242188 306.734375 C 475.039062 306.433594 474.871094 306.117188 474.730469 305.78125 C 474.59375 305.445312 474.488281 305.101562 474.417969 304.746094 C 474.347656 304.390625 474.3125 304.03125 474.3125 303.671875 C 474.3125 303.308594 474.347656 302.949219 474.417969 302.59375 C 474.488281 302.242188 474.59375 301.894531 474.730469 301.5625 C 474.871094 301.226562 475.039062 300.910156 475.242188 300.609375 C 475.441406 300.308594 475.671875 300.027344 475.925781 299.773438 C 476.183594 299.515625 476.460938 299.289062 476.761719 299.085938 C 477.0625 298.886719 477.382812 298.714844 477.714844 298.578125 C 478.050781 298.4375 478.394531 298.332031 478.75 298.261719 C 479.105469 298.191406 479.464844 298.15625 479.828125 298.15625 C 480.1875 298.15625 480.546875 298.191406 480.902344 298.261719 C 481.257812 298.332031 481.601562 298.4375 481.9375 298.578125 C 482.273438 298.714844 482.589844 298.886719 482.890625 299.085938 C 483.191406 299.289062 483.46875 299.515625 483.726562 299.773438 C 483.980469 300.027344 484.210938 300.308594 484.410156 300.609375 C 484.613281 300.910156 484.78125 301.226562 484.921875 301.5625 C 485.058594 301.894531 485.164062 302.242188 485.234375 302.59375 C 485.304688 302.949219 485.339844 303.308594 485.339844 303.671875 Z M 485.339844 303.671875 " fill-opacity="1" fill-rule="nonzero"/><path fill="#956368" d="M 482.574219 423.191406 C 482.574219 423.554688 482.539062 423.914062 482.46875 424.269531 C 482.398438 424.625 482.292969 424.96875 482.15625 425.304688 C 482.015625 425.636719 481.847656 425.957031 481.644531 426.257812 C 481.445312 426.558594 481.214844 426.835938 480.960938 427.09375 C 480.703125 427.347656 480.425781 427.578125 480.125 427.777344 C 479.824219 427.980469 479.507812 428.148438 479.171875 428.285156 C 478.835938 428.425781 478.492188 428.53125 478.136719 428.601562 C 477.78125 428.671875 477.421875 428.707031 477.0625 428.707031 C 476.699219 428.707031 476.339844 428.671875 475.984375 428.601562 C 475.628906 428.53125 475.285156 428.425781 474.949219 428.285156 C 474.617188 428.148438 474.296875 427.980469 473.996094 427.777344 C 473.695312 427.578125 473.417969 427.347656 473.160156 427.09375 C 472.90625 426.835938 472.675781 426.558594 472.476562 426.257812 C 472.273438 425.957031 472.105469 425.636719 471.964844 425.304688 C 471.828125 424.96875 471.722656 424.625 471.652344 424.269531 C 471.582031 423.914062 471.546875 423.554688 471.546875 423.191406 C 471.546875 422.832031 471.582031 422.472656 471.652344 422.117188 C 471.722656 421.761719 471.828125 421.417969 471.964844 421.082031 C 472.105469 420.75 472.273438 420.429688 472.476562 420.128906 C 472.675781 419.828125 472.90625 419.550781 473.160156 419.292969 C 473.417969 419.039062 473.695312 418.808594 473.996094 418.609375 C 474.296875 418.40625 474.617188 418.238281 474.949219 418.097656 C 475.285156 417.960938 475.628906 417.855469 475.984375 417.785156 C 476.339844 417.714844 476.699219 417.679688 477.0625 417.679688 C 477.421875 417.679688 477.78125 417.714844 478.136719 417.785156 C 478.492188 417.855469 478.835938 417.960938 479.171875 418.097656 C 479.507812 418.238281 479.824219 418.40625 480.125 418.609375 C 480.425781 418.808594 480.703125 419.039062 480.960938 419.292969 C 481.214844 419.550781 481.445312 419.828125 481.644531 420.128906 C 481.847656 420.429688 482.015625 420.75 482.15625 421.082031 C 482.292969 421.417969 482.398438 421.761719 482.46875 422.117188 C 482.539062 422.472656 482.574219 422.832031 482.574219 423.191406 Z M 482.574219 423.191406 " fill-opacity="1" fill-rule="nonzero"/><path fill="#956368" d="M 482.773438 361.914062 C 482.773438 362.277344 482.738281 362.636719 482.667969 362.992188 C 482.597656 363.34375 482.492188 363.691406 482.351562 364.023438 C 482.214844 364.359375 482.042969 364.675781 481.84375 364.976562 C 481.640625 365.277344 481.414062 365.558594 481.15625 365.8125 C 480.902344 366.070312 480.625 366.296875 480.320312 366.5 C 480.019531 366.699219 479.703125 366.871094 479.367188 367.007812 C 479.035156 367.148438 478.6875 367.253906 478.335938 367.324219 C 477.980469 367.394531 477.621094 367.429688 477.257812 367.429688 C 476.894531 367.429688 476.539062 367.394531 476.183594 367.324219 C 475.828125 367.253906 475.484375 367.148438 475.148438 367.007812 C 474.8125 366.871094 474.496094 366.699219 474.195312 366.5 C 473.894531 366.296875 473.613281 366.070312 473.359375 365.8125 C 473.101562 365.558594 472.875 365.277344 472.671875 364.976562 C 472.472656 364.675781 472.300781 364.359375 472.164062 364.023438 C 472.023438 363.691406 471.921875 363.34375 471.851562 362.992188 C 471.78125 362.636719 471.742188 362.277344 471.742188 361.914062 C 471.742188 361.554688 471.78125 361.195312 471.851562 360.839844 C 471.921875 360.484375 472.023438 360.140625 472.164062 359.804688 C 472.300781 359.46875 472.472656 359.152344 472.671875 358.851562 C 472.875 358.550781 473.101562 358.273438 473.359375 358.015625 C 473.613281 357.761719 473.894531 357.53125 474.195312 357.332031 C 474.496094 357.128906 474.8125 356.960938 475.148438 356.820312 C 475.484375 356.683594 475.828125 356.578125 476.183594 356.507812 C 476.539062 356.4375 476.894531 356.402344 477.257812 356.402344 C 477.621094 356.402344 477.980469 356.4375 478.335938 356.507812 C 478.6875 356.578125 479.035156 356.683594 479.367188 356.820312 C 479.703125 356.960938 480.019531 357.128906 480.320312 357.332031 C 480.625 357.53125 480.902344 357.761719 481.15625 358.015625 C 481.414062 358.273438 481.640625 358.550781 481.84375 358.851562 C 482.042969 359.152344 482.214844 359.46875 482.351562 359.804688 C 482.492188 360.140625 482.597656 360.484375 482.667969 360.839844 C 482.738281 361.195312 482.773438 361.554688 482.773438 361.914062 Z M 482.773438 361.914062 " fill-opacity="1" fill-rule="nonzero"/><path fill="#956368" d="M 684.253906 338.183594 C 684.253906 338.183594 699.804688 339.082031 717.039062 334.199219 C 717.707031 334.011719 718.09375 333.316406 717.90625 332.648438 C 717.71875 331.984375 717.023438 331.59375 716.355469 331.785156 C 699.550781 336.542969 684.398438 335.675781 684.398438 335.675781 C 683.707031 335.636719 683.113281 336.164062 683.070312 336.855469 C 683.03125 337.550781 683.5625 338.144531 684.253906 338.183594 Z M 684.253906 338.183594 " fill-opacity="1" fill-rule="evenodd"/><path fill="#956368" d="M 592.851562 340.171875 C 592.851562 340.171875 607.445312 319.355469 637.59375 300.8125 C 638.183594 300.449219 638.367188 299.675781 638.003906 299.085938 C 637.640625 298.496094 636.867188 298.3125 636.273438 298.675781 C 605.609375 317.53125 590.792969 338.730469 590.792969 338.730469 C 590.394531 339.300781 590.53125 340.082031 591.101562 340.480469 C 591.671875 340.878906 592.453125 340.742188 592.851562 340.171875 Z M 592.851562 340.171875 " fill-opacity="1" fill-rule="evenodd"/><path fill="#956368" d="M 388.132812 286.417969 C 388.132812 286.417969 382.777344 324.105469 385.222656 353.191406 C 386.742188 371.285156 392.1875 387.710938 393.789062 403.664062 C 393.855469 404.359375 394.472656 404.863281 395.164062 404.792969 C 395.851562 404.722656 396.355469 404.105469 396.289062 403.417969 C 394.6875 387.472656 389.242188 371.0625 387.722656 352.976562 C 385.304688 324.140625 390.621094 286.769531 390.621094 286.769531 C 390.71875 286.082031 390.242188 285.449219 389.554688 285.347656 C 388.867188 285.25 388.230469 285.730469 388.132812 286.417969 Z M 388.132812 286.417969 " fill-opacity="1" fill-rule="evenodd"/><path fill="#956368" d="M 349.726562 353.382812 C 349.726562 353.382812 359.414062 353.109375 366.203125 363.066406 C 373.46875 373.722656 375.425781 382.378906 375.425781 382.378906 C 375.578125 383.054688 376.25 383.480469 376.925781 383.328125 C 377.605469 383.179688 378.03125 382.503906 377.878906 381.828125 C 377.878906 381.828125 375.867188 372.78125 368.277344 361.648438 C 360.628906 350.433594 349.636719 350.871094 349.636719 350.871094 C 348.945312 350.894531 348.402344 351.476562 348.429688 352.167969 C 348.453125 352.863281 349.03125 353.402344 349.726562 353.382812 Z M 349.726562 353.382812 " fill-opacity="1" fill-rule="evenodd"/><path fill="#f5c2a9" d="M 316.285156 410.453125 C 310.484375 407.679688 295.519531 396.105469 291.417969 370.105469 C 287.3125 344.105469 287.347656 306.734375 284.242188 281.808594 C 281.136719 256.882812 280.527344 258.140625 272.035156 245.085938 C 263.535156 232.03125 258.644531 229.964844 255.429688 215.429688 C 252.214844 200.894531 332.921875 203.074219 332.921875 203.074219 C 332.921875 203.074219 323.910156 241.46875 323.707031 255.300781 C 323.503906 269.136719 336.972656 302.273438 342.386719 316.039062 C 347.800781 329.804688 359.089844 356.542969 360.167969 370.804688 C 361.238281 385.0625 359.023438 392.070312 356.148438 395.710938 C 353.277344 399.359375 343.699219 409.386719 338.921875 411.6875 C 335.71875 413.230469 320.316406 412.378906 316.285156 410.453125 Z M 316.285156 410.453125 " fill-opacity="1" fill-rule="evenodd"/><path fill="#f5c2a9" d="M 639.699219 181.230469 C 639.699219 181.230469 651.085938 211.980469 657.160156 239.15625 C 663.238281 266.332031 668.5625 289.539062 677.507812 306.644531 C 686.457031 323.753906 700.910156 333.980469 708.734375 334.746094 C 716.558594 335.511719 736.332031 327.035156 736.332031 327.035156 C 736.332031 327.035156 744.765625 321.140625 746.300781 315.628906 C 747.835938 310.121094 748.507812 295.183594 742.480469 282.761719 C 736.457031 270.34375 725.578125 253.097656 712.3125 233.261719 C 699.050781 213.425781 677.027344 174.566406 677.601562 161.839844 C 678.175781 149.113281 679.730469 133.847656 684.4375 123.390625 C 689.148438 112.9375 699.273438 95.191406 694.710938 92.394531 C 690.144531 89.597656 684.535156 98.140625 677.460938 110.085938 C 677.460938 110.085938 684.109375 86.765625 686 80.28125 C 687.890625 73.800781 686.660156 69.464844 683.734375 68.550781 C 680.804688 67.640625 676.449219 72 673.59375 78.207031 C 670.734375 84.410156 662.867188 103.957031 662.867188 103.957031 C 662.867188 103.957031 667.402344 77.03125 667.871094 71.484375 C 668.335938 65.941406 665.886719 62.332031 663.203125 61.792969 C 660.519531 61.253906 657.0625 63.335938 654.765625 71.167969 C 652.464844 79 644.867188 107.253906 643.832031 110.363281 C 643.832031 110.363281 636.75 100.253906 628.324219 99.601562 C 619.894531 98.953125 611.554688 102.304688 606.640625 111.339844 C 601.726562 120.378906 602.351562 130.25 605.988281 133.210938 C 605.988281 133.210938 599.882812 134.621094 603.472656 139.785156 C 607.066406 144.949219 610.488281 150.394531 613.667969 155.238281 C 616.847656 160.085938 618.855469 161.066406 626.605469 167.136719 C 634.359375 173.203125 636.507812 172.199219 639.699219 181.230469 Z M 611.324219 132.871094 C 611.324219 132.871094 612.53125 131.808594 612.410156 129.507812 C 612.292969 127.203125 612.601562 117.734375 618.992188 116.792969 C 625.386719 115.847656 629.746094 121.285156 630.996094 126.328125 C 632.246094 131.375 631.726562 136.863281 628.558594 139.222656 C 626.449219 140.789062 623.699219 141.03125 620.859375 139.25 C 618.011719 137.46875 615.820312 133.691406 611.324219 132.871094 Z M 611.324219 132.871094 " fill-opacity="1" fill-rule="evenodd"/><path fill="#956368" d="M 607.652344 134.375 C 607.652344 134.375 609.039062 133.957031 610.316406 134.109375 C 611.003906 134.191406 611.628906 133.699219 611.710938 133.007812 C 611.792969 132.324219 611.300781 131.695312 610.613281 131.613281 C 608.855469 131.40625 606.945312 131.960938 606.945312 131.960938 C 606.277344 132.15625 605.898438 132.859375 606.089844 133.519531 C 606.289062 134.1875 606.988281 134.566406 607.652344 134.375 Z M 607.652344 134.375 " fill-opacity="1" fill-rule="evenodd"/><g clip-path="url(#a33c47f03a)"><path fill="#81a69b" d="M 369.117188 141.71875 C 369.117188 143.105469 369.085938 144.488281 369.015625 145.871094 C 368.949219 147.253906 368.847656 148.632812 368.710938 150.007812 C 368.574219 151.386719 368.40625 152.761719 368.203125 154.128906 C 368 155.5 367.765625 156.863281 367.492188 158.21875 C 367.222656 159.578125 366.921875 160.925781 366.585938 162.269531 C 366.246094 163.613281 365.878906 164.945312 365.476562 166.269531 C 365.074219 167.59375 364.640625 168.90625 364.175781 170.210938 C 363.707031 171.515625 363.210938 172.804688 362.679688 174.082031 C 362.152344 175.363281 361.589844 176.628906 361 177.878906 C 360.40625 179.128906 359.785156 180.367188 359.132812 181.585938 C 358.480469 182.804688 357.796875 184.011719 357.085938 185.199219 C 356.375 186.382812 355.632812 187.554688 354.863281 188.703125 C 354.097656 189.855469 353.300781 190.984375 352.476562 192.097656 C 351.648438 193.210938 350.800781 194.300781 349.921875 195.371094 C 349.042969 196.441406 348.140625 197.488281 347.210938 198.511719 C 346.28125 199.539062 345.324219 200.539062 344.347656 201.519531 C 343.367188 202.5 342.367188 203.453125 341.339844 204.382812 C 340.316406 205.3125 339.265625 206.214844 338.195312 207.09375 C 337.125 207.972656 336.035156 208.820312 334.925781 209.648438 C 333.8125 210.472656 332.679688 211.269531 331.53125 212.035156 C 330.378906 212.804688 329.210938 213.546875 328.023438 214.257812 C 326.835938 214.96875 325.632812 215.652344 324.410156 216.304688 C 323.191406 216.957031 321.953125 217.578125 320.703125 218.167969 C 319.453125 218.761719 318.1875 219.320312 316.90625 219.851562 C 315.628906 220.382812 314.339844 220.878906 313.035156 221.34375 C 311.730469 221.8125 310.417969 222.246094 309.09375 222.648438 C 307.769531 223.050781 306.433594 223.417969 305.09375 223.753906 C 303.75 224.089844 302.398438 224.394531 301.042969 224.664062 C 299.683594 224.933594 298.320312 225.171875 296.953125 225.375 C 295.582031 225.578125 294.210938 225.746094 292.832031 225.882812 C 291.453125 226.019531 290.074219 226.121094 288.691406 226.1875 C 287.308594 226.253906 285.925781 226.289062 284.542969 226.289062 C 283.15625 226.289062 281.773438 226.253906 280.390625 226.1875 C 279.007812 226.121094 277.628906 226.019531 276.25 225.882812 C 274.875 225.746094 273.5 225.578125 272.132812 225.375 C 270.761719 225.171875 269.398438 224.933594 268.042969 224.664062 C 266.683594 224.394531 265.332031 224.089844 263.992188 223.753906 C 262.648438 223.417969 261.316406 223.050781 259.988281 222.648438 C 258.664062 222.246094 257.351562 221.8125 256.046875 221.34375 C 254.746094 220.878906 253.453125 220.382812 252.175781 219.851562 C 250.894531 219.320312 249.632812 218.761719 248.378906 218.167969 C 247.128906 217.578125 245.894531 216.957031 244.671875 216.304688 C 243.453125 215.652344 242.246094 214.96875 241.058594 214.257812 C 239.871094 213.546875 238.703125 212.804688 237.550781 212.035156 C 236.402344 211.269531 235.269531 210.472656 234.160156 209.648438 C 233.046875 208.820312 231.957031 207.972656 230.886719 207.09375 C 229.816406 206.214844 228.769531 205.3125 227.742188 204.382812 C 226.71875 203.453125 225.714844 202.5 224.734375 201.519531 C 223.757812 200.539062 222.804688 199.539062 221.875 198.511719 C 220.945312 197.488281 220.039062 196.441406 219.164062 195.371094 C 218.285156 194.300781 217.433594 193.210938 216.609375 192.097656 C 215.785156 190.984375 214.988281 189.855469 214.21875 188.703125 C 213.449219 187.554688 212.707031 186.382812 211.996094 185.199219 C 211.285156 184.011719 210.601562 182.804688 209.949219 181.585938 C 209.296875 180.367188 208.675781 179.128906 208.085938 177.878906 C 207.492188 176.628906 206.933594 175.363281 206.402344 174.082031 C 205.871094 172.804688 205.375 171.515625 204.90625 170.210938 C 204.441406 168.90625 204.007812 167.59375 203.605469 166.269531 C 203.203125 164.945312 202.835938 163.613281 202.5 162.269531 C 202.164062 160.925781 201.859375 159.578125 201.589844 158.21875 C 201.320312 156.863281 201.082031 155.5 200.878906 154.128906 C 200.675781 152.761719 200.507812 151.386719 200.371094 150.007812 C 200.234375 148.632812 200.132812 147.253906 200.066406 145.871094 C 199.996094 144.488281 199.964844 143.105469 199.964844 141.71875 C 199.964844 140.335938 199.996094 138.953125 200.066406 137.570312 C 200.132812 136.1875 200.234375 134.808594 200.371094 133.429688 C 200.507812 132.054688 200.675781 130.679688 200.878906 129.3125 C 201.082031 127.941406 201.320312 126.578125 201.589844 125.222656 C 201.859375 123.863281 202.164062 122.515625 202.5 121.171875 C 202.835938 119.828125 203.203125 118.496094 203.605469 117.171875 C 204.007812 115.847656 204.441406 114.535156 204.90625 113.230469 C 205.375 111.925781 205.871094 110.636719 206.402344 109.355469 C 206.933594 108.078125 207.492188 106.8125 208.085938 105.5625 C 208.675781 104.3125 209.296875 103.074219 209.949219 101.855469 C 210.601562 100.632812 211.285156 99.429688 211.996094 98.242188 C 212.707031 97.054688 213.449219 95.886719 214.21875 94.738281 C 214.988281 93.585938 215.785156 92.453125 216.609375 91.34375 C 217.433594 90.230469 218.285156 89.140625 219.164062 88.070312 C 220.039062 87 220.945312 85.953125 221.875 84.925781 C 222.804688 83.902344 223.757812 82.898438 224.734375 81.921875 C 225.714844 80.941406 226.71875 79.988281 227.742188 79.058594 C 228.769531 78.128906 229.816406 77.226562 230.886719 76.347656 C 231.957031 75.46875 233.046875 74.617188 234.160156 73.792969 C 235.269531 72.96875 236.402344 72.171875 237.550781 71.402344 C 238.703125 70.636719 239.871094 69.894531 241.058594 69.183594 C 242.246094 68.472656 243.453125 67.789062 244.671875 67.136719 C 245.894531 66.484375 247.128906 65.863281 248.378906 65.269531 C 249.632812 64.679688 250.894531 64.117188 252.175781 63.589844 C 253.453125 63.058594 254.746094 62.5625 256.046875 62.09375 C 257.351562 61.628906 258.664062 61.195312 259.988281 60.792969 C 261.316406 60.390625 262.648438 60.023438 263.992188 59.6875 C 265.332031 59.351562 266.683594 59.046875 268.042969 58.777344 C 269.398438 58.507812 270.761719 58.269531 272.132812 58.066406 C 273.5 57.863281 274.875 57.695312 276.25 57.558594 C 277.628906 57.421875 279.007812 57.320312 280.390625 57.253906 C 281.773438 57.1875 283.15625 57.152344 284.542969 57.152344 C 285.925781 57.152344 287.308594 57.1875 288.691406 57.253906 C 290.074219 57.320312 291.453125 57.421875 292.832031 57.558594 C 294.210938 57.695312 295.582031 57.863281 296.953125 58.066406 C 298.320312 58.269531 299.683594 58.507812 301.042969 58.777344 C 302.398438 59.046875 303.75 59.351562 305.09375 59.6875 C 306.433594 60.023438 307.769531 60.390625 309.09375 60.792969 C 310.417969 61.195312 311.730469 61.628906 313.035156 62.09375 C 314.339844 62.5625 315.628906 63.058594 316.90625 63.589844 C 318.1875 64.117188 319.453125 64.679688 320.703125 65.269531 C 321.953125 65.863281 323.191406 66.484375 324.410156 67.136719 C 325.632812 67.789062 326.835938 68.472656 328.023438 69.183594 C 329.210938 69.894531 330.378906 70.636719 331.53125 71.402344 C 332.679688 72.171875 333.8125 72.96875 334.925781 73.792969 C 336.035156 74.617188 337.125 75.46875 338.195312 76.347656 C 339.265625 77.226562 340.316406 78.128906 341.339844 79.058594 C 342.367188 79.988281 343.367188 80.941406 344.347656 81.921875 C 345.324219 82.898438 346.28125 83.902344 347.210938 84.925781 C 348.140625 85.953125 349.042969 87 349.921875 88.070312 C 350.800781 89.140625 351.648438 90.230469 352.476562 91.34375 C 353.300781 92.453125 354.097656 93.585938 354.863281 94.738281 C 355.632812 95.886719 356.375 97.054688 357.085938 98.242188 C 357.796875 99.429688 358.480469 100.632812 359.132812 101.855469 C 359.785156 103.074219 360.40625 104.3125 361 105.5625 C 361.589844 106.8125 362.152344 108.078125 362.679688 109.355469 C 363.210938 110.636719 363.707031 111.925781 364.175781 113.230469 C 364.640625 114.53125 365.074219 115.847656 365.476562 117.171875 C 365.878906 118.496094 366.246094 119.828125 366.585938 121.171875 C 366.921875 122.515625 367.222656 123.863281 367.492188 125.222656 C 367.765625 126.578125 368 127.941406 368.203125 129.3125 C 368.40625 130.679688 368.574219 132.054688 368.710938 133.429688 C 368.847656 134.808594 368.949219 136.1875 369.015625 137.570312 C 369.085938 138.953125 369.117188 140.335938 369.117188 141.71875 Z M 369.117188 141.71875 " fill-opacity="1" fill-rule="nonzero"/></g><path fill="#f5ede9" d="M 279.792969 151.980469 L 312.882812 103.222656 C 313.6875 102.035156 314.9375 101.210938 316.351562 100.941406 C 317.769531 100.671875 319.230469 100.972656 320.425781 101.78125 C 323.609375 103.941406 327.867188 106.832031 331.054688 108.992188 C 332.242188 109.800781 333.066406 111.046875 333.335938 112.464844 C 333.605469 113.875 333.304688 115.339844 332.496094 116.535156 C 322.371094 131.457031 290.492188 178.425781 290.492188 178.425781 L 290.480469 178.417969 L 288.953125 180.667969 C 288.195312 181.789062 287.019531 182.5625 285.6875 182.816406 C 284.359375 183.070312 282.980469 182.789062 281.859375 182.027344 C 272.078125 175.390625 247.976562 159.035156 238.195312 152.402344 C 237.074219 151.640625 236.300781 150.464844 236.046875 149.136719 C 235.792969 147.804688 236.078125 146.429688 236.835938 145.308594 C 239.078125 142.007812 242.175781 137.445312 244.414062 134.148438 C 245.171875 133.027344 246.347656 132.253906 247.675781 132 C 249.007812 131.742188 250.386719 132.027344 251.507812 132.789062 Z M 279.792969 151.980469 " fill-opacity="1" fill-rule="evenodd"/><path fill="#f5c2a9" d="M 307.152344 235.839844 C 307.152344 235.839844 308.304688 225.335938 323.777344 214.613281 C 323.777344 214.613281 326.128906 211.019531 326.792969 204.894531 C 327.457031 198.769531 331.84375 191.605469 337.742188 190.035156 C 344.839844 188.144531 342.34375 195.027344 342.503906 203.265625 C 342.671875 211.503906 344.210938 215.628906 338.023438 226.289062 C 331.835938 236.949219 326.246094 244.167969 323.707031 255.300781 C 320.460938 269.542969 307.152344 235.839844 307.152344 235.839844 Z M 307.152344 235.839844 " fill-opacity="1" fill-rule="evenodd"/><path fill="#956368" d="M 309.660156 236.253906 C 309.660156 236.253906 310.871094 226.230469 325.75 215.921875 C 326.320312 215.527344 326.460938 214.746094 326.066406 214.175781 C 325.671875 213.605469 324.886719 213.460938 324.316406 213.855469 C 308.253906 224.992188 307.160156 235.976562 307.160156 235.976562 C 307.085938 236.667969 307.582031 237.289062 308.273438 237.367188 C 308.960938 237.441406 309.582031 236.941406 309.660156 236.253906 Z M 309.660156 236.253906 " fill-opacity="1" fill-rule="evenodd"/></svg>