<svg xmlns="http://www.w3.org/2000/svg" xmlns:xlink="http://www.w3.org/1999/xlink" width="1366" zoomAndPan="magnify" viewBox="0 0 1024.5 576" height="768" preserveAspectRatio="xMidYMid meet" version="1.0"><defs><clipPath id="03795bb3c8"><path d="M 404.53125 145.203125 L 586.695312 145.203125 L 586.695312 327.363281 L 404.53125 327.363281 Z M 404.53125 145.203125 " clip-rule="nonzero"/></clipPath></defs><path fill="#ffbe0d" d="M 286.695312 413.996094 C 284.59375 416.035156 283.632812 418.976562 284.132812 421.875 L 288.839844 449.371094 C 290.09375 456.636719 282.460938 462.175781 275.945312 458.742188 L 251.28125 445.75 C 248.691406 444.394531 245.59375 444.394531 243 445.75 L 218.335938 458.742188 C 212.472656 461.835938 205.703125 457.660156 205.339844 451.488281 C 205.273438 450.804688 205.324219 450.097656 205.441406 449.371094 L 210.15625 421.875 C 210.640625 418.976562 209.679688 416.035156 207.597656 413.996094 L 187.640625 394.515625 C 182.355469 389.363281 185.277344 380.398438 192.570312 379.335938 L 220.144531 375.328125 C 223.035156 374.898438 225.53125 373.089844 226.824219 370.464844 L 239.171875 345.4375 C 242.429688 338.816406 251.835938 338.816406 255.109375 345.4375 L 267.441406 370.464844 C 268.734375 373.082031 271.230469 374.898438 274.125 375.328125 L 301.710938 379.335938 C 302.410156 379.4375 303.066406 379.613281 303.679688 379.851562 C 309.496094 382.070312 311.414062 389.847656 306.632812 394.515625 Z M 286.695312 413.996094 " fill-opacity="1" fill-rule="nonzero"/><path fill="#ffbe0d" d="M 419.167969 413.996094 C 417.070312 416.035156 416.109375 418.976562 416.609375 421.875 L 421.316406 449.371094 C 422.570312 456.636719 414.9375 462.175781 408.421875 458.742188 L 383.757812 445.75 C 381.167969 444.394531 378.066406 444.394531 375.476562 445.75 L 350.8125 458.742188 C 344.945312 461.835938 338.179688 457.660156 337.8125 451.488281 C 337.75 450.804688 337.796875 450.097656 337.917969 449.371094 L 342.632812 421.875 C 343.117188 418.976562 342.15625 416.035156 340.074219 413.996094 L 320.117188 394.515625 C 314.828125 389.363281 317.753906 380.398438 325.046875 379.335938 L 352.617188 375.328125 C 355.511719 374.898438 358.007812 373.089844 359.300781 370.464844 L 371.648438 345.4375 C 374.90625 338.816406 384.3125 338.816406 387.585938 345.4375 L 399.917969 370.464844 C 401.210938 373.082031 403.707031 374.898438 406.597656 375.328125 L 434.1875 379.335938 C 434.886719 379.4375 435.542969 379.613281 436.152344 379.851562 C 441.972656 382.070312 443.890625 389.847656 439.109375 394.515625 Z M 419.167969 413.996094 " fill-opacity="1" fill-rule="nonzero"/><path fill="#ffbe0d" d="M 551.636719 413.996094 C 549.535156 416.035156 548.578125 418.976562 549.078125 421.875 L 553.785156 449.371094 C 555.035156 456.636719 547.402344 462.175781 540.890625 458.742188 L 516.226562 445.75 C 513.632812 444.394531 510.535156 444.394531 507.941406 445.75 L 483.277344 458.742188 C 477.414062 461.835938 470.644531 457.660156 470.28125 451.488281 C 470.21875 450.804688 470.265625 450.097656 470.382812 449.371094 L 475.097656 421.875 C 475.582031 418.976562 474.625 416.035156 472.539062 413.996094 L 452.582031 394.515625 C 447.296875 389.363281 450.222656 380.398438 457.511719 379.335938 L 485.085938 375.328125 C 487.976562 374.898438 490.476562 373.089844 491.765625 370.464844 L 504.113281 345.4375 C 507.371094 338.816406 516.78125 338.816406 520.054688 345.4375 L 532.386719 370.464844 C 533.675781 373.082031 536.171875 374.898438 539.066406 375.328125 L 566.65625 379.335938 C 567.351562 379.4375 568.011719 379.613281 568.621094 379.851562 C 574.4375 382.070312 576.355469 389.847656 571.578125 394.515625 Z M 551.636719 413.996094 " fill-opacity="1" fill-rule="nonzero"/><path fill="#ffbe0d" d="M 684.113281 413.996094 C 682.011719 416.035156 681.050781 418.976562 681.550781 421.875 L 686.257812 449.371094 C 687.511719 456.636719 679.878906 462.175781 673.363281 458.742188 L 648.699219 445.75 C 646.109375 444.394531 643.007812 444.394531 640.417969 445.75 L 615.753906 458.742188 C 609.890625 461.835938 603.121094 457.660156 602.757812 451.488281 C 602.691406 450.804688 602.738281 450.097656 602.859375 449.371094 L 607.574219 421.875 C 608.058594 418.976562 607.097656 416.035156 605.015625 413.996094 L 585.058594 394.515625 C 579.773438 389.363281 582.695312 380.398438 589.988281 379.335938 L 617.5625 375.328125 C 620.453125 374.898438 622.949219 373.089844 624.242188 370.464844 L 636.589844 345.4375 C 639.847656 338.816406 649.253906 338.816406 652.527344 345.4375 L 664.859375 370.464844 C 666.152344 373.082031 668.648438 374.898438 671.542969 375.328125 L 699.128906 379.335938 C 699.828125 379.4375 700.484375 379.613281 701.097656 379.851562 C 706.914062 382.070312 708.832031 389.847656 704.050781 394.515625 Z M 684.113281 413.996094 " fill-opacity="1" fill-rule="nonzero"/><path fill="#ffbe0d" d="M 816.578125 413.996094 C 814.476562 416.035156 813.519531 418.976562 814.019531 421.875 L 818.726562 449.371094 C 819.980469 456.636719 812.347656 462.175781 805.832031 458.742188 L 781.167969 445.75 C 778.574219 444.394531 775.476562 444.394531 772.886719 445.75 L 748.222656 458.742188 C 742.355469 461.835938 735.585938 457.660156 735.222656 451.488281 C 735.160156 450.804688 735.207031 450.097656 735.328125 449.371094 L 740.042969 421.875 C 740.523438 418.976562 739.566406 416.035156 737.480469 413.996094 L 717.527344 394.515625 C 712.238281 389.363281 715.164062 380.398438 722.457031 379.335938 L 750.027344 375.328125 C 752.921875 374.898438 755.417969 373.089844 756.710938 370.464844 L 769.058594 345.4375 C 772.316406 338.816406 781.722656 338.816406 784.996094 345.4375 L 797.328125 370.464844 C 798.621094 373.082031 801.117188 374.898438 804.007812 375.328125 L 831.597656 379.335938 C 832.296875 379.4375 832.953125 379.613281 833.5625 379.851562 C 839.378906 382.070312 841.296875 389.847656 836.519531 394.515625 Z M 816.578125 413.996094 " fill-opacity="1" fill-rule="nonzero"/><path fill="#ffce00" d="M 303.6875 379.851562 C 281.851562 415.152344 246.75 441.371094 205.339844 451.488281 C 205.273438 450.804688 205.324219 450.097656 205.441406 449.371094 L 210.15625 421.875 C 210.640625 418.976562 209.679688 416.035156 207.597656 413.996094 L 187.640625 394.515625 C 182.355469 389.363281 185.277344 380.398438 192.570312 379.335938 L 220.144531 375.328125 C 223.035156 374.898438 225.53125 373.089844 226.824219 370.464844 L 239.171875 345.4375 C 242.429688 338.816406 251.835938 338.816406 255.109375 345.4375 L 267.441406 370.464844 C 268.734375 373.082031 271.230469 374.898438 274.125 375.328125 L 301.710938 379.335938 C 302.425781 379.4375 303.074219 379.605469 303.6875 379.851562 Z M 303.6875 379.851562 " fill-opacity="1" fill-rule="nonzero"/><path fill="#ffce00" d="M 436.160156 379.851562 C 414.328125 415.152344 379.222656 441.371094 337.8125 451.488281 C 337.75 450.804688 337.796875 450.097656 337.917969 449.371094 L 342.632812 421.875 C 343.117188 418.976562 342.15625 416.035156 340.074219 413.996094 L 320.117188 394.515625 C 314.828125 389.363281 317.753906 380.398438 325.046875 379.335938 L 352.617188 375.328125 C 355.511719 374.898438 358.007812 373.089844 359.300781 370.464844 L 371.648438 345.4375 C 374.90625 338.816406 384.3125 338.816406 387.585938 345.4375 L 399.917969 370.464844 C 401.210938 373.082031 403.707031 374.898438 406.597656 375.328125 L 434.1875 379.335938 C 434.894531 379.4375 435.550781 379.605469 436.160156 379.851562 Z M 436.160156 379.851562 " fill-opacity="1" fill-rule="nonzero"/><path fill="#ffce00" d="M 568.628906 379.851562 C 546.792969 415.152344 511.691406 441.371094 470.28125 451.488281 C 470.21875 450.804688 470.265625 450.097656 470.382812 449.371094 L 475.097656 421.875 C 475.582031 418.976562 474.625 416.035156 472.539062 413.996094 L 452.582031 394.515625 C 447.296875 389.363281 450.222656 380.398438 457.511719 379.335938 L 485.085938 375.328125 C 487.976562 374.898438 490.476562 373.089844 491.765625 370.464844 L 504.113281 345.4375 C 507.371094 338.816406 516.78125 338.816406 520.054688 345.4375 L 532.386719 370.464844 C 533.675781 373.082031 536.171875 374.898438 539.066406 375.328125 L 566.65625 379.335938 C 567.359375 379.4375 568.019531 379.605469 568.628906 379.851562 Z M 568.628906 379.851562 " fill-opacity="1" fill-rule="nonzero"/><path fill="#ffce00" d="M 701.097656 379.851562 C 679.261719 415.152344 644.160156 441.371094 602.746094 451.488281 C 602.683594 450.804688 602.730469 450.097656 602.851562 449.371094 L 607.566406 421.875 C 608.050781 418.976562 607.089844 416.035156 605.007812 413.996094 L 585.050781 394.515625 C 579.765625 389.363281 582.6875 380.398438 589.980469 379.335938 L 617.554688 375.328125 C 620.445312 374.898438 622.941406 373.089844 624.234375 370.464844 L 636.582031 345.4375 C 639.839844 338.816406 649.246094 338.816406 652.519531 345.4375 L 664.851562 370.464844 C 666.144531 373.082031 668.640625 374.898438 671.535156 375.328125 L 699.121094 379.335938 C 699.835938 379.4375 700.484375 379.605469 701.097656 379.851562 Z M 701.097656 379.851562 " fill-opacity="1" fill-rule="nonzero"/><path fill="#ffce00" d="M 833.570312 379.851562 C 811.734375 415.152344 776.632812 441.371094 735.222656 451.488281 C 735.160156 450.804688 735.207031 450.097656 735.328125 449.371094 L 740.042969 421.875 C 740.527344 418.976562 739.566406 416.035156 737.480469 413.996094 L 717.527344 394.515625 C 712.238281 389.363281 715.164062 380.398438 722.457031 379.335938 L 750.027344 375.328125 C 752.921875 374.898438 755.417969 373.089844 756.710938 370.464844 L 769.058594 345.4375 C 772.316406 338.816406 781.722656 338.816406 784.996094 345.4375 L 797.328125 370.464844 C 798.621094 373.082031 801.117188 374.898438 804.007812 375.328125 L 831.597656 379.335938 C 832.304688 379.4375 832.960938 379.605469 833.570312 379.851562 Z M 833.570312 379.851562 " fill-opacity="1" fill-rule="nonzero"/><g clip-path="url(#03795bb3c8)"><path fill="#114fee" d="M 495.589844 152.402344 L 510.136719 145.226562 L 521.503906 156.507812 L 537.558594 154.171875 L 544.882812 168.417969 L 560.867188 171.160156 L 563.433594 186.96875 L 577.792969 194.515625 L 575.34375 210.347656 L 586.667969 221.960938 L 579.449219 236.261719 L 586.625 250.804688 L 575.34375 262.171875 L 577.679688 278.226562 L 563.433594 285.550781 L 560.691406 301.539062 L 544.882812 304.101562 L 537.335938 318.460938 L 521.503906 316.015625 L 509.890625 327.335938 L 495.589844 320.121094 L 481.046875 327.296875 L 469.679688 316.015625 L 453.625 318.347656 L 446.300781 304.101562 L 430.3125 301.359375 L 427.746094 285.550781 L 413.390625 278.003906 L 415.835938 262.171875 L 404.515625 250.5625 L 411.730469 236.261719 L 404.554688 221.714844 L 415.835938 210.347656 L 413.503906 194.292969 L 427.746094 186.96875 L 430.488281 170.984375 L 446.300781 168.417969 L 453.847656 154.058594 L 469.679688 156.507812 L 481.289062 145.183594 Z M 495.589844 152.402344 " fill-opacity="1" fill-rule="evenodd"/></g><path fill="#ffffff" d="M 541.785156 197.429688 L 547.78125 203.425781 C 548.644531 204.289062 548.644531 205.695312 547.78125 206.554688 L 479.238281 275.09375 L 479.15625 275.175781 L 479.113281 275.214844 L 479.074219 275.25 L 479.027344 275.285156 L 478.984375 275.316406 L 478.9375 275.347656 L 478.894531 275.378906 L 478.847656 275.414062 L 478.800781 275.441406 L 478.757812 275.46875 L 478.605469 275.539062 L 478.558594 275.5625 L 478.507812 275.585938 L 478.457031 275.601562 L 478.40625 275.621094 L 478.359375 275.640625 L 478.257812 275.671875 L 478.207031 275.683594 L 478.152344 275.699219 L 478.105469 275.707031 L 478.054688 275.714844 L 478 275.726562 L 477.78125 275.742188 L 477.566406 275.742188 L 477.402344 275.730469 L 477.347656 275.722656 L 477.292969 275.710938 L 477.238281 275.703125 L 477.1875 275.695312 L 477.132812 275.679688 L 477.085938 275.667969 L 477.035156 275.652344 L 476.984375 275.640625 L 476.933594 275.621094 L 476.886719 275.601562 L 476.835938 275.585938 L 476.683594 275.515625 L 476.636719 275.492188 L 476.585938 275.46875 C 476.554688 275.449219 476.523438 275.429688 476.492188 275.414062 C 476.351562 275.328125 476.21875 275.222656 476.097656 275.101562 L 470.105469 269.101562 L 470.089844 269.089844 L 443.394531 242.394531 C 442.53125 241.53125 442.53125 240.128906 443.394531 239.265625 L 449.386719 233.269531 C 450.246094 232.410156 451.652344 232.410156 452.511719 233.269531 L 477.664062 258.421875 L 538.648438 197.433594 C 539.519531 196.570312 540.925781 196.570312 541.785156 197.429688 " fill-opacity="1" fill-rule="evenodd"/></svg>