<?xml version="1.0" encoding="utf-8"?>
<svg xmlns="http://www.w3.org/2000/svg" viewBox="0 0 24 24">
  <path d="M7.076 21.337H2.47a.641.641 0 0 1-.633-.74L4.944.901C5.026.382 5.474 0 5.998 0h7.46c2.57 0 4.578.543 5.69 1.81 1.01 1.15 1.304 2.42 1.012 4.287-.023.143-.047.288-.077.437-.983 5.05-4.349 6.797-8.647 6.797h-2.19c-.524 0-.968.382-1.05.9l-1.12 7.106zm14.146-14.42a3.35 3.35 0 0 0-.607-.541c-.013.076-.026.175-.041.254-.59 3.048-2.598 6.743-8.81 6.743h-2.19c-.077 0-.142.037-.156.089l-1.477 9.114c-.026.151.1.273.25.273h4.251c.428 0 .797-.318.866-.745l.033-.201.595-3.936.04-.237c.07-.428.438-.738.866-.738h.546c3.526 0 6.273-1.489 7.08-5.825.343-1.814.177-3.163-.646-4.249" fill="#003087"/>
  <path d="M20.865 6.495c-.032-.144-.067-.284-.107-.42a7.24 7.24 0 0 0-.226-.676 5.21 5.21 0 0 0-.378-.793c-.51.048-1.09.108-1.722.18-3.346.384-7.304 1.01-9.053 3.352-.017.022-.033.045-.048.068 1.067-5.53 5.974-5.55 10.863-5.55h.935c.371 0 .729.066 1.047.199.922.378 1.539 1.225 1.695 2.366l.032.146a7.498 7.498 0 0 1 .113 1.47 14.88 14.88 0 0 0-.029-.244c-.08-.593-.227-1.096-.451-1.514a3.35 3.35 0 0 0-.607-.541c-.763-.515-1.766-.684-2.953-.684h-8.18c-.194 0-.362.126-.422.317l-2.275 14.85c-.031.202.1.39.303.39h3.9l.97-6.402c.007-.06.037-.113.083-.148 2.289-1.67 6.21-2.284 9.457-2.661l.155-.018c.165-.02.356-.043.566-.07l.35-.05c.023-.004.045-.009.068-.013a9.852 9.852 0 0 0 .33-.075c.451-1.451.268-3.216-.85-4.453" fill="#0070E0"/>
</svg>
