<?xml version="1.0" standalone="no"?>
<!DOCTYPE svg PUBLIC "-//W3C//DTD SVG 20010904//EN"
 "http://www.w3.org/TR/2001/REC-SVG-20010904/DTD/svg10.dtd">
<svg version="1.0" xmlns="http://www.w3.org/2000/svg"
 width="900.000000pt" height="740.000000pt" viewBox="0 0 900.000000 740.000000"
 preserveAspectRatio="xMidYMid meet">

<g transform="translate(0.000000,740.000000) scale(0.100000,-0.100000)"
fill="#000000" stroke="none">
<path d="M3725 7354 c-434 -46 -783 -127 -1329 -308 -375 -125 -413 -140 -481
-187 -146 -101 -285 -254 -514 -569 -135 -185 -156 -207 -333 -361 -152 -132
-174 -159 -339 -404 -62 -93 -127 -186 -144 -205 -38 -43 -119 -152 -142 -191
-10 -16 -21 -29 -25 -29 -4 0 -8 -5 -8 -12 0 -6 -20 -45 -44 -87 -59 -101 -86
-184 -86 -266 0 -37 4 -65 10 -65 6 0 10 7 10 15 0 8 12 22 26 32 26 17 27 16
51 -12 16 -18 23 -36 20 -49 -3 -12 -35 -102 -72 -201 -93 -251 -114 -337
-125 -528 -12 -192 -23 -268 -60 -412 -45 -180 -64 -358 -63 -620 1 -203 4
-255 31 -440 39 -263 94 -532 134 -652 16 -51 66 -159 110 -240 182 -338 205
-393 236 -568 12 -66 33 -185 47 -265 43 -241 98 -377 210 -517 27 -34 51 -61
52 -59 2 1 -19 59 -46 127 -112 285 -174 515 -186 689 l-6 85 26 -30 c14 -16
78 -96 141 -177 189 -241 273 -308 571 -457 183 -92 383 -170 383 -151 0 12
-112 105 -177 147 -29 18 -125 72 -215 119 -282 149 -345 203 -524 449 -141
194 -183 287 -248 540 -30 116 -87 323 -126 460 -80 280 -200 755 -226 891
-15 76 -17 149 -15 494 1 223 6 461 11 530 10 128 46 283 94 412 62 164 95
305 116 494 11 102 25 207 31 232 23 106 73 182 218 337 123 131 205 232 316
390 73 104 135 176 239 280 168 167 223 230 346 395 122 163 195 245 278 313
168 138 333 191 674 217 170 13 391 1 576 -31 65 -11 155 -27 202 -35 47 -8
139 -17 205 -19 l120 -5 -65 26 c-36 14 -157 52 -270 85 -113 33 -209 61 -215
64 -15 8 355 -4 490 -16 317 -26 401 -55 699 -242 72 -44 234 -134 359 -199
281 -145 348 -188 458 -297 121 -120 188 -232 294 -491 100 -243 151 -326 295
-475 185 -192 216 -255 369 -751 44 -142 111 -351 150 -464 75 -220 111 -353
167 -605 74 -337 75 -357 85 -860 5 -292 13 -509 23 -595 19 -170 20 -355 2
-442 -8 -36 -47 -140 -86 -230 -105 -237 -193 -464 -272 -702 -68 -206 -152
-508 -146 -526 2 -6 17 -2 33 9 45 27 125 190 258 526 63 160 149 362 190 450
145 313 195 464 204 617 7 114 -2 165 -61 361 -53 174 -66 251 -66 405 0 250
75 518 218 780 66 122 121 177 251 254 119 70 169 105 181 128 20 38 28 161
19 293 -40 573 -47 629 -99 862 -16 71 -43 195 -60 274 -17 79 -39 163 -49
185 -32 74 -109 126 -291 196 -47 18 -88 36 -92 39 -11 10 20 194 43 256 38
103 169 201 319 240 100 26 254 17 345 -19 210 -85 395 -242 532 -450 68 -103
135 -251 193 -425 188 -564 225 -1005 120 -1416 -31 -123 -123 -300 -263 -508
-109 -161 -124 -187 -105 -187 13 0 95 5 185 11 205 14 342 2 413 -37 188
-102 307 -334 271 -528 -23 -126 -102 -240 -201 -291 -65 -33 -194 -60 -457
-96 -128 -18 -237 -35 -242 -39 -6 -3 -14 -27 -17 -52 l-6 -45 158 -7 c368
-16 580 -77 751 -216 72 -59 93 -92 93 -151 0 -89 -70 -177 -159 -200 -29 -7
-206 -14 -466 -18 -242 -5 -430 -12 -444 -18 -23 -9 -22 -10 20 -21 24 -6 136
-23 249 -37 281 -35 350 -50 455 -99 208 -99 380 -275 451 -463 14 -36 24 -72
22 -80 -3 -16 -159 -89 -270 -126 -123 -41 -209 -49 -346 -32 -446 57 -641
102 -854 196 -104 46 -230 83 -348 103 -47 8 -86 14 -87 13 -1 -1 28 -36 64
-77 95 -109 197 -267 270 -415 34 -72 63 -125 63 -118 0 69 -61 279 -117 402
-18 41 -32 76 -30 78 2 2 29 -8 59 -21 234 -103 609 -191 984 -231 246 -25
346 0 609 155 47 28 85 52 85 53 0 16 -66 199 -85 237 -39 76 -84 120 -247
242 -82 61 -147 116 -145 122 2 6 64 52 138 103 163 112 184 133 193 202 21
157 -38 223 -321 362 -100 49 -185 94 -188 99 -12 19 68 89 156 136 152 80
220 157 255 289 18 64 18 206 0 270 -38 145 -163 312 -282 378 -30 17 -169 38
-311 47 -86 5 -158 12 -161 14 -2 3 38 85 91 183 117 219 162 325 193 462 51
225 69 504 43 674 -14 93 -108 491 -148 629 -96 328 -215 541 -416 743 -103
103 -256 215 -350 255 -259 112 -595 25 -748 -193 -60 -85 -78 -137 -85 -239
-10 -169 16 -217 228 -433 173 -177 222 -244 281 -385 42 -98 67 -244 74 -420
3 -85 13 -236 22 -335 8 -99 13 -211 10 -249 -4 -64 -7 -72 -38 -98 -19 -15
-82 -53 -140 -83 -148 -78 -177 -105 -240 -227 -66 -131 -108 -197 -161 -254
l-43 -46 -8 33 c-4 19 -12 225 -16 459 -10 462 -14 502 -73 668 -68 194 -196
453 -322 652 -221 349 -242 394 -336 752 -80 302 -125 395 -276 573 -47 55
-147 177 -222 270 -218 273 -239 292 -634 598 -335 260 -356 268 -683 272
-126 2 -248 1 -270 -1z m334 -79 c304 -28 367 -51 509 -189 51 -49 117 -119
146 -155 100 -123 294 -407 284 -416 -7 -7 -214 86 -354 160 -127 66 -194 106
-427 253 -196 124 -238 136 -521 152 -99 6 -196 14 -215 18 -19 4 -87 2 -150
-5 -64 -7 -213 -15 -331 -18 l-215 -6 30 26 c17 14 59 40 95 58 60 30 72 32
170 33 88 0 128 6 241 37 257 68 428 80 738 52z m991 -572 c56 -61 142 -184
135 -191 -9 -9 -114 80 -155 132 -24 30 -60 83 -79 118 l-35 63 41 -33 c23
-18 65 -58 93 -89z m497 -731 c183 -226 205 -273 210 -457 l3 -130 -46 95
c-45 93 -223 482 -270 590 l-24 55 22 -26 c13 -15 60 -72 105 -127z m1260
-622 c71 -32 148 -100 181 -159 29 -51 21 -51 -74 -6 -73 35 -173 118 -216
177 l-21 30 34 -7 c19 -4 62 -20 96 -35z m-547 -792 c91 -176 141 -300 182
-448 32 -118 55 -315 44 -375 l-8 -40 -25 60 c-14 33 -59 155 -99 270 -40 116
-91 260 -112 320 -40 110 -74 251 -87 355 -6 52 -6 54 9 33 9 -12 52 -91 96
-175z m-6077 -1788 c8 -36 27 -101 41 -145 14 -44 48 -179 76 -300 27 -121 74
-299 104 -395 98 -314 173 -596 163 -606 -6 -6 -158 248 -207 346 -66 132 -88
200 -125 385 -67 338 -95 621 -95 976 0 365 14 423 21 89 5 -199 11 -305 22
-350z"/>
<path d="M7386 7108 c-82 -169 -120 -353 -114 -543 l3 -100 27 56 c44 93 86
223 107 332 20 104 40 347 28 347 -4 0 -27 -42 -51 -92z"/>
<path d="M6165 6710 c16 -73 88 -269 140 -378 51 -106 129 -232 145 -232 10 0
-8 123 -31 214 -37 148 -122 299 -219 391 l-42 40 7 -35z"/>
<path d="M8730 6329 c-86 -56 -151 -113 -209 -184 -57 -70 -116 -164 -108
-171 10 -11 144 84 216 152 40 37 96 104 126 149 76 113 73 118 -25 54z"/>
<path d="M1888 5715 c-149 -28 -289 -90 -408 -178 -123 -91 -293 -277 -382
-417 -78 -123 -118 -273 -118 -443 0 -269 106 -458 363 -648 277 -206 586
-293 832 -235 196 47 370 142 506 276 80 79 103 109 138 180 106 219 117 449
35 749 -50 181 -100 279 -188 367 -156 155 -351 300 -451 335 -78 28 -223 34
-327 14z m316 -108 c33 -15 87 -51 120 -81 34 -29 106 -89 161 -133 147 -118
189 -165 229 -258 78 -179 112 -354 103 -524 -7 -127 -25 -199 -76 -306 -71
-149 -182 -255 -356 -340 -144 -69 -259 -99 -385 -98 -131 1 -225 25 -366 92
-266 127 -475 325 -536 508 -50 146 -45 308 12 464 47 130 174 305 321 443
193 182 397 269 614 262 84 -2 110 -7 159 -29z"/>
<path d="M2040 4991 c-74 -23 -154 -94 -170 -152 -6 -18 -10 -84 -10 -146 l0
-111 86 -7 c118 -10 215 -2 256 21 48 28 88 111 88 183 -1 71 -16 140 -38 165
-41 46 -142 68 -212 47z"/>
<path d="M4499 5595 c-239 -58 -538 -318 -778 -677 -242 -362 -245 -566 -11
-798 186 -184 351 -234 810 -247 233 -6 298 3 404 60 158 83 383 378 456 597
25 76 30 204 10 266 -7 21 -82 179 -166 349 -114 232 -163 319 -191 347 -97
95 -360 145 -534 103z m228 -76 c96 -13 233 -49 233 -61 0 -26 -62 -67 -137
-92 -70 -23 -86 -33 -104 -62 -12 -19 -20 -36 -18 -38 2 -2 72 7 154 19 83 13
151 22 151 21 1 0 45 -71 99 -156 116 -186 193 -341 205 -413 18 -117 -28
-251 -150 -435 -115 -172 -219 -271 -331 -313 -86 -33 -221 -43 -413 -30 -373
25 -500 71 -656 238 -159 171 -172 279 -59 506 91 183 235 373 414 545 196
189 330 261 522 281 6 0 47 -4 90 -10z"/>
<path d="M4284 5056 c-142 -66 -194 -181 -147 -326 19 -61 91 -146 140 -166
65 -28 181 -9 252 41 88 61 106 185 44 317 -67 142 -169 190 -289 134z m121
-91 c28 -27 30 -37 15 -65 -26 -48 -100 -45 -117 4 -23 69 50 114 102 61z
m119 -201 c7 -20 -10 -54 -28 -54 -21 0 -38 27 -31 50 8 24 50 28 59 4z"/>
<path d="M5010 3327 c0 -3 45 -34 101 -69 l101 -63 -6 -115 c-12 -234 -64
-485 -176 -860 -124 -414 -179 -529 -320 -670 -128 -129 -318 -269 -475 -350
-157 -80 -488 -168 -830 -222 -126 -19 -393 -17 -495 5 -158 34 -456 139 -548
193 -43 25 -216 183 -209 190 2 2 56 15 121 28 64 13 119 26 122 29 3 3 -32
20 -78 38 -110 43 -215 51 -276 20 -39 -20 -70 -55 -87 -96 -9 -24 -44 -159
-41 -162 1 -1 36 21 79 48 l77 50 32 -38 c149 -171 335 -269 687 -359 167 -43
322 -57 486 -44 325 27 812 143 1006 240 130 66 367 238 488 354 165 160 215
262 355 731 80 268 111 413 161 765 15 102 28 186 29 187 1 2 53 -58 115 -133
62 -74 115 -134 117 -132 9 10 -49 196 -78 250 -42 79 -122 152 -185 168 -50
13 -273 27 -273 17z"/>
<path d="M8336 2650 c-28 -11 -56 -26 -64 -34 -13 -13 -12 -16 11 -21 15 -4
64 -5 110 -4 69 3 90 8 120 29 58 40 49 50 -45 50 -57 -1 -98 -7 -132 -20z"/>
<path d="M8387 2529 c-49 -38 -24 -109 38 -109 56 0 83 57 48 98 -28 31 -56
35 -86 11z"/>
<path d="M8370 1635 c0 -37 4 -55 13 -55 22 0 270 40 274 44 3 2 -4 7 -14 10
-35 10 -246 56 -259 56 -10 0 -14 -15 -14 -55z"/>
<path d="M8300 1497 c0 -15 34 -49 67 -66 32 -16 183 -27 183 -13 0 15 -51 50
-97 66 -61 21 -153 29 -153 13z"/>
<path d="M8444 795 c21 -37 34 -70 30 -75 -5 -4 -36 -27 -69 -51 -47 -34 -56
-45 -40 -47 96 -12 177 -17 181 -11 2 4 17 50 33 101 16 51 32 100 36 110 8
21 -6 25 -119 34 l-89 7 37 -68z"/>
</g>
</svg>
