<svg xmlns="http://www.w3.org/2000/svg" xmlns:xlink="http://www.w3.org/1999/xlink" width="1366" zoomAndPan="magnify" viewBox="0 0 1024.5 576" height="768" preserveAspectRatio="xMidYMid meet" version="1.0"><defs><clipPath id="a7e8e7ed60"><path d="M 255.285156 74.484375 L 676.578125 74.484375 L 676.578125 430.558594 L 255.285156 430.558594 Z M 255.285156 74.484375 " clip-rule="nonzero"/></clipPath><clipPath id="0b787d5167"><path d="M 658.933594 462.355469 L 757.402344 462.355469 L 757.402344 511.480469 L 658.933594 511.480469 Z M 658.933594 462.355469 " clip-rule="nonzero"/></clipPath><clipPath id="59197e2ee0"><path d="M 477.476562 370 L 767.582031 370 L 767.582031 494 L 477.476562 494 Z M 477.476562 370 " clip-rule="nonzero"/></clipPath><clipPath id="519282bb59"><path d="M 600 281.347656 L 701 281.347656 L 701 412 L 600 412 Z M 600 281.347656 " clip-rule="nonzero"/></clipPath></defs><path fill="#fff3e1" d="M 674.976562 87.84375 L 622.289062 414.441406 C 620.910156 422.976562 613.542969 429.242188 604.902344 429.242188 L 349.449219 429.242188 L 602.421875 429.242188 C 592.78125 429.242188 584.964844 421.433594 584.964844 411.789062 L 584.964844 394.328125 L 355.09375 394.328125 L 363.429688 342.617188 L 388.820312 330.261719 C 418.308594 315.894531 437.03125 285.96875 437.03125 253.160156 L 437.03125 196.417969 C 418.371094 196.417969 401.675781 188.019531 390.503906 174.804688 L 405.066406 84.527344 C 405.878906 79.484375 410.230469 75.773438 415.34375 75.773438 L 664.695312 75.773438 C 671.109375 75.78125 675.996094 81.519531 674.976562 87.84375 Z M 395.148438 289.929688 L 309.957031 289.929688 L 309.957031 212.285156 L 395.148438 212.285156 Z M 395.148438 289.929688 " fill-opacity="1" fill-rule="nonzero"/><path fill="#ffa300" d="M 602.429688 429.242188 L 327.820312 429.242188 C 318.183594 429.242188 310.355469 421.433594 310.355469 411.789062 L 310.355469 394.328125 L 584.980469 394.328125 L 584.980469 411.789062 C 584.980469 421.433594 592.792969 429.242188 602.429688 429.242188 Z M 664.695312 75.78125 L 415.34375 75.78125 C 410.230469 75.78125 405.878906 79.492188 405.066406 84.535156 L 400.410156 113.390625 L 521.261719 113.390625 C 525.898438 113.390625 529.660156 109.632812 529.660156 104.996094 C 529.660156 100.359375 533.421875 96.597656 538.0625 96.597656 L 673.570312 96.597656 L 674.984375 87.84375 C 675.996094 81.519531 671.109375 75.78125 664.695312 75.78125 Z M 664.695312 75.78125 " fill-opacity="1" fill-rule="nonzero"/><path fill="#55d876" d="M 625.082031 151.859375 L 617.660156 189.625 C 616.601562 194.988281 611.402344 199.332031 606.035156 199.332031 L 538.382812 199.332031 C 533.015625 199.332031 529.523438 194.980469 530.582031 189.625 L 538 151.859375 C 539.058594 146.496094 544.257812 142.152344 549.625 142.152344 L 617.28125 142.152344 C 622.636719 142.152344 626.136719 146.496094 625.082031 151.859375 Z M 625.082031 151.859375 " fill-opacity="1" fill-rule="nonzero"/><path fill="#f93262" d="M 380.96875 159.371094 L 312.765625 159.371094 C 303.472656 181.15625 281.855469 196.425781 256.683594 196.425781 L 256.683594 253.171875 C 256.683594 285.980469 275.40625 315.902344 304.894531 330.269531 L 346.867188 350.6875 L 388.820312 330.269531 C 418.308594 315.902344 437.03125 285.980469 437.03125 253.171875 L 437.03125 196.425781 C 411.851562 196.425781 390.257812 181.15625 380.96875 159.371094 Z M 378.160156 239.289062 C 369.957031 247.496094 361.75 255.699219 353.550781 263.90625 C 349.058594 268.40625 339.265625 278.214844 333.414062 284.074219 L 329.3125 279.878906 C 329.191406 279.695312 329.054688 279.523438 328.898438 279.375 C 328.488281 278.984375 328.082031 278.597656 327.675781 278.214844 C 327.300781 277.859375 326.929688 277.496094 326.546875 277.140625 C 321.019531 271.855469 315.488281 266.578125 309.957031 261.289062 L 319.152344 252.097656 C 319.933594 252.839844 320.714844 253.585938 321.496094 254.332031 C 325.457031 258.117188 329.425781 261.90625 333.386719 265.691406 C 333.761719 265.320312 334.125 264.957031 334.496094 264.582031 C 342.695312 256.375 350.90625 248.171875 359.105469 239.964844 C 364.261719 234.808594 369.414062 229.652344 374.570312 224.496094 L 383.765625 233.691406 C 381.886719 235.554688 380.023438 237.425781 378.160156 239.289062 Z M 378.160156 239.289062 " fill-opacity="1" fill-rule="nonzero"/><g clip-path="url(#a7e8e7ed60)"><path fill="#000000" d="M 417.042969 253.605469 L 417.042969 208.957031 L 415.742188 208.957031 C 397.582031 208.957031 381.234375 198.160156 374.109375 181.445312 L 373.773438 180.65625 L 319.953125 180.65625 L 319.613281 181.445312 C 312.488281 198.160156 296.140625 208.957031 277.960938 208.957031 L 276.664062 208.957031 L 276.664062 253.605469 C 276.664062 278.976562 291.40625 302.558594 314.222656 313.675781 L 346.859375 329.550781 L 379.476562 313.675781 C 402.300781 302.546875 417.042969 278.976562 417.042969 253.605469 Z M 346.867188 326.65625 L 315.367188 311.335938 C 293.433594 300.648438 279.261719 277.988281 279.261719 253.605469 L 279.261719 211.539062 C 297.664062 211.046875 314.125 200.085938 321.660156 183.253906 L 372.054688 183.253906 C 379.589844 200.085938 396.039062 211.046875 414.433594 211.539062 L 414.433594 253.605469 C 414.433594 277.988281 400.261719 300.648438 378.332031 311.335938 Z M 529.304688 189.375 C 528.714844 192.390625 529.359375 195.230469 531.125 197.378906 C 532.851562 199.476562 535.433594 200.628906 538.390625 200.628906 L 606.046875 200.628906 C 611.992188 200.628906 617.773438 195.804688 618.945312 189.867188 L 626.363281 152.101562 C 626.953125 149.085938 626.3125 146.242188 624.542969 144.09375 C 622.820312 141.996094 620.234375 140.84375 617.28125 140.84375 L 549.625 140.84375 C 543.679688 140.84375 537.894531 145.671875 536.726562 151.609375 Z M 549.625 143.453125 L 617.28125 143.453125 C 619.445312 143.453125 621.308594 144.269531 622.53125 145.757812 C 623.796875 147.292969 624.25 149.371094 623.808594 151.617188 L 616.386719 189.382812 C 615.449219 194.15625 610.804688 198.039062 606.035156 198.039062 L 538.382812 198.039062 C 536.214844 198.039062 534.351562 197.222656 533.128906 195.734375 C 531.863281 194.199219 531.414062 192.121094 531.855469 189.875 L 539.273438 152.109375 C 540.21875 147.335938 544.855469 143.453125 549.625 143.453125 Z M 467.621094 227.796875 L 605.492188 227.796875 L 605.492188 230.398438 L 467.621094 230.398438 Z M 467.621094 257.5625 L 600.585938 257.5625 L 600.585938 260.164062 L 467.621094 260.164062 Z M 467.621094 287.332031 L 595.679688 287.332031 L 595.679688 289.929688 L 467.621094 289.929688 Z M 447.722656 317.097656 L 590.761719 317.097656 L 590.761719 319.699219 L 447.722656 319.699219 Z M 410.101562 346.863281 L 585.855469 346.863281 L 585.855469 349.464844 L 410.101562 349.464844 Z M 526.28125 418.445312 L 361.394531 418.445312 L 361.394531 415.84375 L 526.289062 415.84375 L 526.289062 418.445312 Z M 350.324219 418.445312 L 337.234375 418.445312 L 337.234375 415.84375 L 350.324219 415.84375 Z M 676.464844 85.089844 L 676.085938 83.484375 C 676.074219 83.46875 676.074219 83.453125 676.066406 83.425781 C 675.996094 83.148438 675.917969 82.871094 675.832031 82.601562 C 675.808594 82.523438 675.78125 82.445312 675.753906 82.367188 C 675.667969 82.109375 675.574219 81.855469 675.46875 81.605469 C 675.425781 81.511719 675.382812 81.425781 675.339844 81.328125 C 675.191406 81 675.027344 80.679688 674.84375 80.359375 C 674.722656 80.148438 674.601562 79.941406 674.472656 79.734375 C 674.394531 79.621094 674.316406 79.507812 674.238281 79.394531 C 674.082031 79.171875 673.910156 78.953125 673.734375 78.738281 C 673.691406 78.683594 673.65625 78.632812 673.621094 78.582031 C 673.597656 78.546875 673.5625 78.519531 673.535156 78.484375 C 673.015625 77.886719 672.433594 77.34375 671.8125 76.867188 C 671.777344 76.839844 671.734375 76.8125 671.699219 76.777344 C 671.414062 76.570312 671.125 76.371094 670.824219 76.191406 C 670.769531 76.15625 670.710938 76.121094 670.660156 76.085938 C 670.320312 75.886719 669.980469 75.703125 669.625 75.539062 C 669.625 75.539062 669.625 75.539062 669.617188 75.539062 C 669.246094 75.367188 668.863281 75.21875 668.472656 75.082031 C 668.4375 75.070312 668.40625 75.0625 668.378906 75.054688 C 668.050781 74.941406 667.710938 74.855469 667.375 74.777344 C 667.277344 74.75 667.183594 74.734375 667.078125 74.714844 C 666.785156 74.65625 666.496094 74.613281 666.195312 74.570312 C 666.089844 74.550781 665.984375 74.542969 665.882812 74.527344 C 665.484375 74.507812 665.09375 74.484375 664.695312 74.484375 L 415.34375 74.484375 C 415 74.484375 414.652344 74.5 414.304688 74.527344 C 414.167969 74.535156 414.027344 74.5625 413.898438 74.578125 C 413.699219 74.605469 413.5 74.621094 413.300781 74.65625 C 413.125 74.683594 412.960938 74.726562 412.796875 74.769531 C 412.640625 74.804688 412.476562 74.835938 412.320312 74.871094 C 412.136719 74.925781 411.957031 74.984375 411.765625 75.039062 C 411.636719 75.082031 411.496094 75.113281 411.367188 75.167969 C 411.175781 75.238281 410.984375 75.316406 410.792969 75.390625 C 410.679688 75.4375 410.570312 75.488281 410.457031 75.53125 C 410.257812 75.617188 410.066406 75.722656 409.875 75.816406 C 409.78125 75.867188 409.683594 75.914062 409.589844 75.964844 C 409.390625 76.078125 409.199219 76.199219 409.007812 76.320312 C 408.929688 76.371094 408.84375 76.421875 408.765625 76.476562 C 408.566406 76.605469 408.382812 76.746094 408.195312 76.890625 C 408.125 76.945312 408.054688 76.996094 407.996094 77.046875 C 407.804688 77.203125 407.621094 77.359375 407.441406 77.523438 C 407.386719 77.578125 407.328125 77.628906 407.273438 77.679688 C 407.09375 77.855469 406.910156 78.035156 406.738281 78.226562 C 406.695312 78.269531 406.652344 78.320312 406.609375 78.363281 C 406.433594 78.5625 406.261719 78.773438 406.097656 78.980469 C 406.0625 79.023438 406.035156 79.058594 406 79.101562 C 405.835938 79.328125 405.671875 79.550781 405.515625 79.785156 C 405.496094 79.820312 405.472656 79.847656 405.453125 79.882812 C 405.296875 80.132812 405.152344 80.382812 405.011719 80.644531 C 405.003906 80.667969 404.988281 80.6875 404.976562 80.714844 C 404.839844 80.992188 404.699219 81.269531 404.578125 81.554688 C 404.570312 81.5625 404.570312 81.570312 404.570312 81.589844 C 404.441406 81.882812 404.328125 82.1875 404.222656 82.5 C 404.121094 82.820312 404.023438 83.140625 403.945312 83.476562 L 403.566406 85.070312 L 403.644531 85.070312 L 389.660156 171.730469 C 386.671875 167.820312 384.132812 163.515625 382.144531 158.84375 L 381.808594 158.054688 L 311.90625 158.054688 L 311.570312 158.84375 C 302.171875 180.871094 280.632812 195.101562 256.683594 195.101562 L 255.382812 195.101562 L 255.382812 253.144531 C 255.382812 269.488281 259.957031 285.441406 268.628906 299.296875 C 277.285156 313.144531 289.628906 324.257812 304.324219 331.414062 L 346.867188 352.109375 L 361.75 344.863281 L 353.984375 393.011719 L 309.054688 393.011719 L 309.054688 411.769531 C 309.054688 422.109375 317.472656 430.523438 327.820312 430.523438 L 604.910156 430.523438 C 614.246094 430.523438 622.097656 423.84375 623.582031 414.632812 L 674.679688 97.878906 L 676.265625 88.035156 C 676.335938 87.609375 676.378906 87.1875 676.40625 86.761719 C 676.429688 86.191406 676.40625 85.625 676.351562 85.070312 L 676.464844 85.070312 Z M 672.453125 95.296875 L 538.0625 95.296875 C 532.710938 95.296875 528.359375 99.648438 528.359375 104.996094 C 528.359375 108.910156 525.179688 112.09375 521.261719 112.09375 L 401.933594 112.09375 L 406.296875 85.089844 L 673.734375 85.089844 C 673.796875 85.601562 673.832031 86.128906 673.804688 86.648438 C 673.789062 86.980469 673.753906 87.308594 673.699219 87.636719 Z M 346.867188 349.238281 L 305.46875 329.101562 C 276.621094 315.035156 257.984375 285.234375 257.984375 253.160156 L 257.984375 197.710938 C 282.167969 197.207031 303.820312 182.8125 313.613281 160.671875 L 380.109375 160.671875 C 387.617188 177.632812 402.074219 190.03125 419.289062 195.144531 C 419.375 195.171875 419.460938 195.195312 419.550781 195.222656 C 421.515625 195.792969 423.511719 196.269531 425.546875 196.652344 C 425.722656 196.6875 425.902344 196.722656 426.078125 196.746094 C 427.074219 196.921875 428.078125 197.085938 429.085938 197.214844 C 429.09375 197.214844 429.101562 197.214844 429.109375 197.214844 C 430.074219 197.335938 431.042969 197.433594 432.015625 197.511719 C 432.257812 197.527344 432.507812 197.546875 432.75 197.5625 C 433.722656 197.632812 434.691406 197.683594 435.671875 197.699219 C 435.6875 197.699219 435.707031 197.699219 435.722656 197.699219 L 435.722656 253.152344 C 435.722656 277.210938 425.246094 299.984375 407.828125 315.796875 C 402.023438 321.066406 395.453125 325.5625 388.238281 329.082031 L 362.242188 341.734375 Z M 311.65625 411.789062 L 311.65625 395.628906 L 583.679688 395.628906 L 583.679688 411.789062 C 583.679688 413.183594 583.835938 414.535156 584.132812 415.835938 L 547.507812 415.835938 L 547.507812 418.433594 L 584.914062 418.433594 C 586.4375 422.429688 589.28125 425.785156 592.921875 427.933594 L 327.820312 427.933594 C 318.902344 427.941406 311.65625 420.695312 311.65625 411.789062 Z M 621.007812 414.234375 C 619.722656 422.179688 612.953125 427.941406 604.902344 427.941406 L 602.429688 427.941406 C 593.519531 427.941406 586.273438 420.695312 586.273438 411.789062 L 586.273438 393.027344 L 356.617188 393.027344 L 364.609375 343.492188 L 389.390625 331.429688 C 404.085938 324.273438 416.429688 313.164062 425.089844 299.316406 C 433.757812 285.460938 438.332031 269.503906 438.332031 253.160156 L 438.332031 195.128906 L 437.03125 195.128906 C 437.015625 195.128906 437 195.128906 436.980469 195.128906 C 436.035156 195.128906 435.082031 195.09375 434.144531 195.050781 C 433.894531 195.039062 433.644531 195.023438 433.382812 195.007812 C 432.507812 194.953125 431.640625 194.882812 430.773438 194.796875 C 430.6875 194.789062 430.601562 194.78125 430.503906 194.773438 C 429.535156 194.667969 428.5625 194.53125 427.601562 194.382812 C 427.417969 194.355469 427.246094 194.320312 427.066406 194.296875 C 426.164062 194.140625 425.261719 193.976562 424.367188 193.777344 C 424.308594 193.765625 424.246094 193.75 424.195312 193.742188 C 423.199219 193.523438 422.210938 193.273438 421.230469 193.003906 C 421.152344 192.988281 421.082031 192.960938 421.003906 192.945312 C 409.796875 189.816406 399.648438 183.445312 391.878906 174.433594 L 401.519531 114.699219 L 521.261719 114.699219 C 526.609375 114.699219 530.960938 110.351562 530.960938 105.003906 C 530.960938 101.085938 534.144531 97.90625 538.0625 97.90625 L 672.035156 97.90625 Z M 621.007812 414.234375 " fill-opacity="1" fill-rule="nonzero"/></g><g clip-path="url(#0b787d5167)"><path fill="#e31e34" d="M 694.949219 462.386719 L 757.292969 467.558594 L 658.933594 511.480469 L 694.949219 462.386719 " fill-opacity="1" fill-rule="nonzero"/></g><g clip-path="url(#59197e2ee0)"><path fill="#ff1e34" d="M 477.632812 387.859375 L 767.425781 370.246094 L 757.292969 467.667969 L 507.152344 493.429688 L 477.632812 387.859375 " fill-opacity="1" fill-rule="nonzero"/></g><path fill="#ffffff" d="M 532.332031 456.128906 L 534.949219 440.34375 L 540.683594 455.28125 Z M 531.59375 430.316406 L 523.707031 470.164062 L 530.117188 469.511719 L 531.355469 462.03125 L 542.824219 460.867188 L 545.542969 467.949219 L 551.953125 467.296875 L 536.21875 429.847656 L 531.59375 430.316406 " fill-opacity="1" fill-rule="nonzero"/><path fill="#ffffff" d="M 570.378906 439.703125 C 570.472656 440.644531 570.390625 441.484375 570.136719 442.226562 C 569.878906 442.96875 569.460938 443.554688 568.878906 443.992188 C 568.296875 444.425781 567.597656 444.683594 566.78125 444.769531 L 560.15625 445.441406 L 558.9375 433.425781 L 565.5625 432.753906 C 566.375 432.671875 567.117188 432.789062 567.785156 433.105469 C 568.453125 433.421875 568.984375 433.921875 569.375 434.609375 C 569.769531 435.292969 570.015625 436.125 570.113281 437.097656 Z M 570.535156 427.617188 C 568.898438 426.949219 567.019531 426.726562 564.890625 426.941406 L 558.347656 427.605469 L 555.261719 427.917969 L 552.257812 428.222656 L 556.179688 466.871094 L 562.269531 466.253906 L 560.75 451.261719 L 567.292969 450.597656 C 569.402344 450.382812 571.195312 449.789062 572.671875 448.816406 C 574.148438 447.84375 575.234375 446.542969 575.929688 444.914062 C 576.625 443.285156 576.867188 441.433594 576.65625 439.363281 L 576.332031 436.171875 C 576.121094 434.082031 575.511719 432.300781 574.5 430.828125 C 573.492188 429.355469 572.167969 428.285156 570.535156 427.617188 " fill-opacity="1" fill-rule="nonzero"/><path fill="#ffffff" d="M 598.703125 436.832031 C 598.796875 437.769531 598.714844 438.613281 598.460938 439.355469 C 598.203125 440.09375 597.785156 440.683594 597.203125 441.121094 C 596.617188 441.554688 595.921875 441.8125 595.105469 441.894531 L 588.484375 442.566406 L 587.261719 430.550781 L 593.886719 429.882812 C 594.699219 429.796875 595.441406 429.917969 596.109375 430.234375 C 596.777344 430.550781 597.308594 431.050781 597.699219 431.738281 C 598.09375 432.421875 598.339844 433.25 598.4375 434.226562 Z M 598.859375 424.746094 C 597.222656 424.078125 595.339844 423.851562 593.214844 424.070312 L 586.671875 424.730469 L 583.585938 425.046875 L 580.582031 425.347656 L 584.503906 463.996094 L 590.59375 463.378906 L 589.074219 448.386719 L 595.617188 447.722656 C 597.726562 447.511719 599.519531 446.917969 600.996094 445.941406 C 602.472656 444.96875 603.558594 443.671875 604.253906 442.042969 C 604.949219 440.414062 605.191406 438.5625 604.980469 436.488281 L 604.65625 433.300781 C 604.445312 431.210938 603.835938 429.425781 602.824219 427.953125 C 601.816406 426.480469 600.492188 425.410156 598.859375 424.746094 " fill-opacity="1" fill-rule="nonzero"/><path fill="#ffffff" d="M 627.019531 433.101562 C 627.09375 434.003906 627.003906 434.796875 626.75 435.476562 C 626.496094 436.15625 626.082031 436.699219 625.503906 437.105469 C 624.929688 437.515625 624.242188 437.757812 623.441406 437.839844 L 616.660156 438.527344 L 615.558594 427.65625 L 622.339844 426.96875 C 623.15625 426.886719 623.886719 426.996094 624.535156 427.296875 C 625.183594 427.597656 625.703125 428.070312 626.089844 428.710938 C 626.476562 429.351562 626.714844 430.113281 626.804688 431 Z M 629.292969 441.878906 C 630.777344 440.894531 631.871094 439.59375 632.566406 437.976562 C 633.261719 436.355469 633.503906 434.5 633.289062 432.410156 L 633.058594 430.152344 C 632.851562 428.09375 632.246094 426.351562 631.242188 424.925781 C 630.234375 423.496094 628.914062 422.457031 627.269531 421.808594 C 625.628906 421.160156 623.742188 420.945312 621.613281 421.160156 L 614.964844 421.835938 L 611.5625 422.179688 L 608.902344 422.449219 L 612.828125 461.125 L 618.890625 460.507812 L 617.253906 444.347656 L 622.003906 443.867188 L 630.355469 459.347656 L 637.324219 458.640625 L 628.191406 442.507812 C 628.574219 442.320312 628.945312 442.113281 629.292969 441.878906 " fill-opacity="1" fill-rule="nonzero"/><path fill="#ffffff" d="M 657.644531 444.953125 C 657.765625 446.15625 657.652344 447.222656 657.296875 448.15625 C 656.945312 449.085938 656.367188 449.835938 655.566406 450.398438 C 654.761719 450.964844 653.792969 451.304688 652.660156 451.417969 C 651.523438 451.535156 650.507812 451.394531 649.605469 451.003906 C 648.707031 450.613281 647.984375 449.996094 647.445312 449.15625 C 646.902344 448.316406 646.570312 447.292969 646.449219 446.085938 L 644.859375 430.429688 C 644.738281 429.246094 644.859375 428.183594 645.222656 427.253906 C 645.582031 426.320312 646.164062 425.574219 646.96875 425.007812 C 647.769531 424.441406 648.738281 424.105469 649.871094 423.988281 C 651.007812 423.871094 652.023438 424.011719 652.925781 424.402344 C 653.824219 424.796875 654.542969 425.414062 655.074219 426.253906 C 655.605469 427.09375 655.933594 428.109375 656.054688 429.296875 Z M 655.660156 418.78125 C 653.789062 418.003906 651.65625 417.738281 649.261719 417.980469 C 646.871094 418.222656 644.835938 418.914062 643.160156 420.050781 C 641.484375 421.1875 640.253906 422.691406 639.464844 424.5625 C 638.679688 426.429688 638.40625 428.570312 638.652344 430.980469 L 640.261719 446.824219 C 640.503906 449.214844 641.199219 451.253906 642.347656 452.933594 C 643.492188 454.617188 645.003906 455.847656 646.875 456.625 C 648.742188 457.402344 650.875 457.667969 653.265625 457.425781 C 655.664062 457.183594 657.695312 456.492188 659.371094 455.355469 C 661.046875 454.21875 662.277344 452.714844 663.0625 450.835938 C 663.847656 448.953125 664.121094 446.820312 663.878906 444.425781 L 662.269531 428.585938 C 662.027344 426.175781 661.328125 424.132812 660.183594 422.460938 C 659.039062 420.785156 657.527344 419.558594 655.660156 418.78125 " fill-opacity="1" fill-rule="nonzero"/><path fill="#ffffff" d="M 680.402344 443.636719 L 670.976562 416.179688 L 664.542969 416.835938 L 678.574219 454.457031 L 684.371094 453.867188 L 690.554688 414.195312 L 684.117188 414.847656 L 680.402344 443.636719 " fill-opacity="1" fill-rule="nonzero"/><path fill="#ffffff" d="M 697.363281 413.507812 L 694.648438 413.78125 L 698.574219 452.429688 L 701.285156 452.152344 L 704.664062 451.8125 L 719.714844 450.285156 L 719.121094 444.4375 L 704.070312 445.964844 L 703.007812 435.519531 L 715.933594 434.207031 L 715.34375 428.414062 L 702.421875 429.722656 L 701.332031 419.011719 L 716.386719 417.484375 L 715.792969 411.636719 L 700.738281 413.164062 L 697.363281 413.507812 " fill-opacity="1" fill-rule="nonzero"/><path fill="#ffffff" d="M 740.789062 436.867188 C 740.964844 438.585938 740.613281 439.957031 739.742188 440.976562 C 738.871094 441.996094 737.546875 442.59375 735.773438 442.773438 L 730.640625 443.296875 L 727.898438 416.289062 L 733.03125 415.769531 C 734.804688 415.589844 736.222656 415.910156 737.28125 416.734375 C 738.339844 417.558594 738.957031 418.828125 739.132812 420.546875 Z M 743.355469 413.984375 C 742.265625 412.421875 740.800781 411.292969 738.957031 410.601562 C 737.113281 409.914062 734.957031 409.691406 732.496094 409.941406 L 727.308594 410.46875 L 724.941406 410.710938 L 721.214844 411.085938 L 725.140625 449.734375 L 728.863281 449.355469 L 731.230469 449.117188 L 736.390625 448.59375 C 738.890625 448.339844 740.976562 447.683594 742.640625 446.628906 C 744.304688 445.574219 745.511719 444.164062 746.253906 442.398438 C 746.996094 440.628906 747.253906 438.59375 747.019531 436.292969 L 745.351562 419.863281 C 745.113281 417.507812 744.445312 415.546875 743.355469 413.984375 " fill-opacity="1" fill-rule="nonzero"/><g clip-path="url(#519282bb59)"><path fill="#e31e34" d="M 691.433594 399.496094 L 614.8125 405.492188 C 612.8125 405.648438 611.066406 404.152344 610.910156 402.15625 L 606.246094 342.613281 C 606.191406 341.746094 606.84375 340.898438 607.597656 340.21875 C 610.011719 338.035156 612.351562 335.773438 614.519531 333.34375 L 620.875 326.222656 C 625.894531 320.597656 629.675781 313.988281 631.984375 306.816406 L 637.445312 289.839844 C 637.679688 289.105469 638.335938 288.585938 639.109375 288.527344 C 640.277344 287.984375 641.394531 287.683594 642.453125 287.597656 C 649.105469 287.078125 653.472656 295.25 652.949219 308.386719 L 652.582031 311.117188 C 652.027344 315.183594 651.589844 319.265625 651.25 323.355469 C 650.832031 328.324219 650.308594 330.742188 649.296875 334.824219 C 649.195312 335.238281 649.53125 335.632812 649.957031 335.597656 L 686.207031 332.761719 C 688.203125 332.605469 689.953125 334.097656 690.109375 336.097656 L 690.507812 341.175781 C 690.664062 343.171875 689.167969 344.917969 687.171875 345.078125 L 686.15625 345.15625 C 684.433594 345.289062 683.179688 346.886719 683.511719 348.625 C 683.792969 350.101562 685.191406 351.09375 686.6875 350.976562 L 687.628906 350.902344 C 689.625 350.746094 691.375 352.238281 691.53125 354.238281 L 691.929688 359.316406 C 692.085938 361.316406 690.589844 363.058594 688.589844 363.214844 L 687.578125 363.296875 C 685.855469 363.429688 684.601562 365.023438 684.933594 366.765625 C 685.214844 368.242188 686.609375 369.234375 688.109375 369.117188 L 689.046875 369.042969 C 691.046875 368.886719 692.796875 370.378906 692.953125 372.378906 L 693.347656 377.457031 C 693.507812 379.453125 692.011719 381.199219 690.011719 381.355469 L 688.996094 381.4375 C 687.277344 381.570312 686.023438 383.164062 686.351562 384.90625 C 686.636719 386.378906 688.03125 387.371094 689.53125 387.257812 L 690.46875 387.183594 C 692.46875 387.027344 694.21875 388.519531 694.371094 390.519531 L 694.769531 395.59375 C 694.925781 397.59375 693.433594 399.339844 691.433594 399.496094 Z M 700.734375 395.128906 L 700.335938 390.050781 C 700.136719 387.527344 698.976562 385.308594 697.242188 383.71875 C 698.710938 381.882812 699.507812 379.511719 699.3125 376.988281 L 698.914062 371.910156 C 698.714844 369.390625 697.554688 367.167969 695.824219 365.582031 C 697.289062 363.746094 698.089844 361.371094 697.890625 358.847656 L 697.492188 353.769531 C 697.292969 351.246094 696.136719 349.027344 694.402344 347.441406 C 695.867188 345.605469 696.667969 343.230469 696.472656 340.707031 L 696.074219 335.632812 C 695.660156 330.34375 691.03125 326.390625 685.738281 326.804688 L 656.613281 329.082031 C 656.847656 327.5625 657.035156 325.90625 657.207031 323.851562 C 657.550781 319.738281 657.988281 315.726562 658.503906 311.921875 L 658.875 309.191406 L 658.914062 308.910156 L 658.925781 308.625 C 659.339844 298.183594 656.96875 289.929688 652.25 285.390625 C 649.429688 282.675781 645.78125 281.34375 641.988281 281.640625 C 640.449219 281.761719 638.886719 282.140625 637.335938 282.78125 C 634.71875 283.429688 632.597656 285.378906 631.75 288.011719 L 626.289062 304.988281 C 624.238281 311.367188 620.875 317.246094 616.410156 322.242188 L 610.058594 329.367188 C 608.253906 331.386719 606.195312 333.425781 603.585938 335.785156 C 603.574219 335.796875 603.5625 335.808594 603.546875 335.820312 C 603.1875 336.144531 602.859375 336.5 602.554688 336.878906 C 602.355469 337.128906 602.164062 337.390625 601.988281 337.660156 C 601.371094 338.59375 600.917969 339.617188 600.644531 340.683594 C 600.367188 341.757812 600.265625 342.871094 600.351562 343.984375 L 604.945312 402.621094 C 605.222656 406.152344 607.378906 409.089844 610.355469 410.527344 C 611.835938 411.242188 613.519531 411.585938 615.277344 411.449219 L 691.898438 405.453125 C 697.195312 405.039062 701.148438 400.417969 700.734375 395.128906 " fill-opacity="1" fill-rule="nonzero"/></g><path fill="#ffffff" d="M 691.433594 399.496094 L 614.8125 405.492188 C 612.8125 405.648438 611.0625 404.152344 610.90625 402.15625 L 606.246094 342.617188 L 606.246094 342.613281 C 606.191406 341.746094 606.839844 340.898438 607.59375 340.21875 C 610.011719 338.039062 612.347656 335.773438 614.519531 333.34375 L 620.875 326.222656 C 625.890625 320.601562 629.675781 313.992188 631.984375 306.816406 L 637.445312 289.84375 C 637.679688 289.105469 638.335938 288.585938 639.109375 288.527344 C 640.277344 287.984375 641.394531 287.683594 642.453125 287.601562 C 649.105469 287.078125 653.472656 295.25 652.949219 308.386719 L 652.578125 311.117188 C 652.027344 315.183594 651.589844 319.265625 651.246094 323.355469 C 650.832031 328.324219 650.304688 330.742188 649.296875 334.824219 C 649.195312 335.238281 649.527344 335.632812 649.957031 335.597656 L 686.207031 332.761719 C 688.203125 332.605469 689.953125 334.101562 690.109375 336.097656 L 690.507812 341.175781 C 690.664062 343.171875 689.167969 344.921875 687.167969 345.078125 L 686.15625 345.15625 C 684.433594 345.289062 683.179688 346.886719 683.511719 348.625 C 683.792969 350.101562 685.1875 351.09375 686.6875 350.976562 L 687.625 350.902344 C 689.625 350.746094 691.375 352.238281 691.53125 354.238281 L 691.925781 359.316406 C 692.085938 361.3125 690.589844 363.058594 688.589844 363.21875 L 687.574219 363.296875 C 685.855469 363.429688 684.601562 365.027344 684.929688 366.769531 C 685.214844 368.238281 686.609375 369.234375 688.109375 369.117188 L 689.046875 369.042969 C 691.046875 368.886719 692.796875 370.378906 692.949219 372.378906 L 693.347656 377.457031 C 693.503906 379.453125 692.011719 381.199219 690.011719 381.355469 L 688.996094 381.4375 C 687.277344 381.570312 686.023438 383.164062 686.351562 384.90625 C 686.632812 386.378906 688.03125 387.375 689.527344 387.257812 L 690.46875 387.183594 C 692.46875 387.027344 694.214844 388.519531 694.371094 390.519531 L 694.769531 395.59375 C 694.925781 397.59375 693.433594 399.339844 691.433594 399.496094 " fill-opacity="1" fill-rule="nonzero"/><path fill="#e31e34" d="M 604.132812 408.097656 C 603.925781 408.355469 603.566406 408.667969 603.03125 408.710938 L 572.921875 411.066406 C 571.953125 411.144531 570.953125 410.199219 570.582031 408.886719 L 565.722656 346.847656 C 565.890625 345.546875 566.75 344.464844 567.699219 344.390625 L 597.804688 342.035156 C 598.34375 341.992188 598.746094 342.246094 598.992188 342.46875 C 599.394531 342.835938 599.640625 343.355469 599.683594 343.933594 L 604.589844 406.539062 C 604.636719 407.121094 604.472656 407.671875 604.132812 408.097656 Z M 611.179688 406.023438 L 606.273438 343.417969 C 606.097656 341.15625 605.089844 339.085938 603.4375 337.582031 C 603.15625 337.324219 602.863281 337.09375 602.554688 336.878906 C 601.007812 335.804688 599.171875 335.300781 597.289062 335.449219 L 567.183594 337.804688 C 564.992188 337.976562 562.957031 339.035156 561.457031 340.789062 C 560.097656 342.375 559.265625 344.433594 559.109375 346.582031 L 559.09375 346.828125 L 564.015625 409.679688 L 564.035156 409.921875 L 564.089844 410.15625 C 564.574219 412.285156 565.714844 414.210938 567.304688 415.578125 C 568.890625 416.941406 570.828125 417.675781 572.8125 417.675781 C 573.019531 417.675781 573.230469 417.667969 573.441406 417.652344 L 603.546875 415.296875 C 605.800781 415.121094 607.839844 414.03125 609.285156 412.230469 C 609.710938 411.703125 610.066406 411.132812 610.355469 410.527344 C 611.011719 409.144531 611.300781 407.597656 611.179688 406.023438 " fill-opacity="1" fill-rule="nonzero"/><path fill="#ffffff" d="M 604.132812 408.097656 C 603.925781 408.355469 603.566406 408.667969 603.03125 408.710938 L 572.921875 411.066406 C 571.953125 411.144531 570.953125 410.199219 570.582031 408.886719 L 565.722656 346.847656 C 565.890625 345.546875 566.75 344.464844 567.699219 344.390625 L 597.804688 342.035156 C 598.34375 341.992188 598.746094 342.246094 598.992188 342.46875 C 599.394531 342.835938 599.640625 343.355469 599.683594 343.933594 L 604.589844 406.539062 C 604.636719 407.121094 604.472656 407.671875 604.132812 408.097656 " fill-opacity="1" fill-rule="nonzero"/><path fill="#ff1e34" d="M 695.128906 324.128906 L 709.890625 307.910156 L 720.21875 317.300781 L 695.128906 324.128906 " fill-opacity="1" fill-rule="nonzero"/><path fill="#ff1e34" d="M 559.140625 337.933594 L 552.992188 314.441406 L 567.953125 310.53125 L 559.140625 337.933594 " fill-opacity="1" fill-rule="nonzero"/><path fill="#ff1e34" d="M 688.519531 314.519531 L 686.21875 287.617188 L 703.351562 286.152344 L 688.519531 314.519531 " fill-opacity="1" fill-rule="nonzero"/><path fill="#ff1e34" d="M 550.902344 345.363281 L 534.6875 308.269531 L 512.394531 325.558594 L 550.902344 345.363281 " fill-opacity="1" fill-rule="nonzero"/><path fill="#ff1e34" d="M 548.65625 356.523438 L 504.203125 344.808594 L 507.921875 367.933594 Z M 548.65625 356.523438 " fill-opacity="1" fill-rule="nonzero"/></svg>