<?xml version="1.0" standalone="no"?>
<!DOCTYPE svg PUBLIC "-//W3C//DTD SVG 20010904//EN"
 "http://www.w3.org/TR/2001/REC-SVG-20010904/DTD/svg10.dtd">
<svg version="1.0" xmlns="http://www.w3.org/2000/svg"
 width="860.000000pt" height="902.000000pt" viewBox="0 0 860.000000 902.000000"
 preserveAspectRatio="xMidYMid meet">

<g transform="translate(0.000000,902.000000) scale(0.100000,-0.100000)"
fill="#000000" stroke="none">
<path d="M4478 8610 c-31 -19 -184 -49 -353 -70 -213 -26 -334 -56 -455 -110
-72 -33 -179 -65 -445 -131 -436 -109 -462 -117 -610 -191 -101 -51 -283 -238
-553 -567 -184 -225 -282 -312 -430 -384 -78 -37 -93 -41 -222 -53 -75 -6
-147 -17 -159 -24 -12 -6 -50 -16 -84 -21 -34 -6 -75 -16 -92 -24 -16 -7 -51
-16 -77 -20 -48 -6 -58 -17 -58 -61 0 -23 3 -24 61 -24 38 0 77 7 107 20 42
18 65 20 182 18 l135 -3 -3 -55 c-7 -113 -81 -227 -282 -435 -149 -154 -213
-243 -342 -471 l-83 -149 -1 -270 c0 -220 -4 -281 -17 -330 -9 -32 -17 -67
-17 -77 0 -22 -24 -94 -80 -238 -50 -131 -81 -245 -89 -330 -5 -56 -9 -65 -26
-65 -20 0 -20 8 -23 468 -2 403 -4 467 -17 467 -8 0 -26 -22 -40 -50 -25 -49
-25 -53 -25 -289 0 -211 -2 -247 -20 -303 -19 -60 -20 -92 -20 -619 0 -520 1
-562 20 -650 11 -52 27 -186 35 -299 15 -215 22 -270 55 -463 32 -192 78 -375
116 -467 19 -47 58 -143 85 -215 28 -71 114 -255 190 -408 165 -328 189 -394
200 -534 5 -68 21 -150 48 -250 22 -81 45 -181 51 -221 14 -98 22 -112 66
-112 l36 0 -7 43 c-9 55 -47 192 -85 306 -36 108 -64 341 -41 341 5 0 70 -69
145 -154 237 -267 373 -389 552 -491 79 -45 79 -45 177 -45 54 0 97 4 97 9 0
6 -42 30 -93 55 -235 115 -438 296 -652 581 -90 120 -229 331 -303 462 -26 46
-50 83 -54 83 -4 0 -20 -18 -34 -40 -15 -22 -30 -40 -34 -40 -12 0 -131 263
-200 445 -126 332 -212 684 -252 1030 -19 169 -16 570 6 743 10 79 16 157 12
173 -4 21 -2 29 9 29 7 0 17 -5 20 -10 4 -6 8 -140 10 -298 8 -639 99 -1126
294 -1576 52 -120 180 -361 187 -353 2 1 -21 77 -51 168 -231 711 -338 1419
-338 2254 -1 369 3 395 85 615 152 410 168 474 168 682 1 203 15 323 46 385
30 59 99 146 225 284 47 52 142 162 211 244 127 153 255 282 333 335 60 42
108 40 255 -10 124 -42 223 -53 248 -28 7 7 12 31 12 54 0 59 -23 77 -191 155
-79 36 -145 71 -146 76 -2 5 26 43 63 84 79 88 216 257 377 465 130 169 194
233 312 310 193 126 386 177 715 190 244 10 496 -13 950 -87 218 -35 261 -39
395 -37 170 2 205 -8 252 -69 l26 -33 -64 -58 c-35 -32 -141 -126 -235 -209
-329 -291 -491 -502 -554 -725 -31 -108 -36 -260 -12 -373 16 -75 22 -91 39
-93 16 -2 24 8 41 55 11 32 24 70 27 85 9 36 21 44 77 52 46 7 48 9 59 49 43
168 140 388 255 579 86 145 162 258 173 258 5 0 14 -13 21 -30 18 -43 29 -48
88 -43 66 7 74 21 107 177 29 136 48 190 81 233 43 56 48 57 329 63 l260 5
-44 48 c-51 55 -128 118 -274 223 l-101 73 -55 -60 c-44 -47 -68 -65 -111 -79
-30 -10 -58 -15 -63 -11 -13 13 -25 240 -16 310 11 90 26 122 53 116 662 -136
1105 -412 1387 -865 103 -166 208 -417 254 -608 16 -67 20 -73 39 -67 12 3 48
9 82 12 76 7 103 -6 174 -84 85 -93 160 -276 159 -388 l0 -30 -35 39 c-19 22
-60 91 -92 155 -55 110 -133 211 -163 211 -30 0 18 -110 202 -460 123 -234
339 -683 438 -909 294 -669 448 -1189 528 -1781 19 -144 21 -304 12 -990 l-4
-335 44 -164 c38 -143 43 -173 38 -235 -9 -126 -66 -262 -212 -506 -101 -168
-163 -288 -196 -379 l-23 -65 -13 70 c-26 142 -115 264 -236 326 l-62 31 25
15 c14 8 64 55 111 102 72 72 95 104 133 181 65 133 88 228 90 369 1 139 -18
225 -73 325 -53 99 -69 106 -177 78 -190 -49 -387 -146 -584 -286 -130 -93
-257 -199 -526 -439 -115 -103 -245 -217 -289 -253 -206 -171 -458 -306 -711
-380 -225 -65 -514 -91 -742 -65 l-115 13 -86 80 c-298 277 -589 465 -859 557
-180 61 -533 113 -647 96 -45 -7 -57 -15 -120 -79 -113 -116 -151 -226 -111
-322 33 -79 230 -191 501 -285 404 -141 545 -262 661 -570 l32 -85 106 -3 c58
-1 106 1 106 6 0 17 -53 139 -103 236 -100 196 -239 349 -383 420 -44 22 -173
72 -288 112 -126 44 -236 90 -280 115 -72 43 -186 149 -186 173 0 14 103 48
199 66 91 17 238 12 327 -11 98 -25 261 -102 368 -173 45 -30 164 -118 266
-197 378 -291 538 -372 764 -385 344 -21 750 109 1141 366 207 137 325 228
765 590 206 170 396 312 536 403 102 66 260 157 273 157 11 0 30 -86 41 -178
17 -149 -15 -304 -85 -409 -87 -131 -212 -239 -513 -445 -237 -162 -320 -228
-422 -334 -91 -95 -92 -103 -15 -124 103 -29 218 14 360 135 113 97 219 168
293 195 69 26 160 41 208 33 31 -5 39 -13 65 -65 47 -93 63 -169 49 -231 -18
-79 -71 -182 -153 -297 -40 -58 -82 -117 -91 -132 l-18 -28 224 0 223 0 12 62
c15 77 141 334 318 648 102 180 160 331 244 630 23 80 46 157 52 172 10 24 7
32 -23 67 -72 85 -77 150 -87 1231 -7 729 -12 906 -25 1005 -9 66 -21 192 -26
280 -6 94 -17 191 -29 235 -33 129 -153 368 -299 595 -320 499 -398 641 -484
885 -29 82 -34 108 -58 305 -7 51 -22 112 -35 141 -46 102 -193 308 -324 454
-37 41 -112 131 -166 200 -282 355 -549 627 -842 854 -35 27 -63 52 -63 56 0
3 11 17 25 30 14 13 25 29 25 35 0 19 -42 53 -102 80 -112 51 -165 55 -731 55
-317 0 -528 -4 -539 -10z m322 -53 c0 -16 -76 -327 -91 -374 l-11 -33 -121 0
c-126 1 -233 15 -542 70 -154 28 -205 33 -352 34 -141 1 -170 3 -161 14 38 45
257 125 458 166 69 14 251 44 405 66 154 21 307 46 340 54 77 18 75 18 75 3z
m2955 -3182 c120 -167 205 -416 235 -690 6 -55 12 -115 15 -132 2 -18 0 -33
-5 -33 -10 0 -119 245 -202 455 -65 163 -188 519 -188 544 0 21 91 -69 145
-144z"/>
<path d="M5635 7373 c-59 -5 -165 -22 -201 -34 -29 -9 -34 -17 -59 -97 -60
-195 -137 -302 -350 -487 -229 -199 -289 -276 -348 -442 -44 -123 -60 -232
-54 -373 6 -145 22 -210 82 -337 60 -127 106 -193 205 -297 281 -293 694 -475
1193 -526 162 -17 463 -8 537 15 251 78 456 292 507 528 18 87 13 274 -12 387
-38 180 -141 422 -262 617 -62 99 -304 448 -387 558 -79 104 -212 243 -303
316 -159 127 -348 186 -548 172z m421 -267 c62 -28 137 -94 184 -161 44 -63
101 -180 90 -183 -5 -2 -44 5 -87 15 -106 24 -343 24 -466 0 -265 -53 -562
-194 -829 -394 -61 -46 -113 -81 -115 -79 -3 3 24 49 60 103 232 349 578 640
849 713 105 29 233 23 314 -14z m-1 -446 c141 -23 167 -31 159 -48 -77 -183
-47 -370 84 -513 127 -139 301 -174 480 -97 l82 36 29 -33 c72 -83 107 -206
117 -416 l7 -135 -74 -22 c-298 -90 -615 -141 -979 -157 -211 -10 -597 17
-801 56 -54 11 -57 13 -82 64 -14 29 -89 137 -167 240 -78 103 -149 203 -158
221 -14 31 -14 36 4 69 28 52 181 255 239 317 201 212 381 330 600 392 50 14
101 27 115 29 51 9 287 7 345 -3z m482 -72 c54 -25 116 -95 153 -172 29 -61
80 -224 80 -255 0 -26 -150 -55 -205 -40 -96 27 -149 72 -191 164 -46 99 -41
200 13 293 24 43 25 43 66 37 23 -4 61 -16 84 -27z m477 -1255 c-14 -64 -68
-158 -124 -212 -151 -148 -402 -212 -774 -198 -251 9 -428 51 -615 145 -63 31
-115 62 -115 67 -1 13 171 30 454 44 598 31 871 69 1090 154 85 33 92 33 84 0z"/>
<path d="M2509 6199 c-112 -9 -249 -39 -369 -81 -178 -63 -419 -202 -527 -305
-75 -71 -103 -168 -147 -503 -20 -156 -22 -165 -43 -168 -28 -4 -30 -18 -5
-27 17 -5 20 -25 31 -162 29 -378 117 -622 287 -798 66 -68 106 -97 191 -139
118 -58 200 -77 358 -83 115 -4 157 -1 237 15 l97 20 259 241 c143 132 295
279 338 327 255 279 374 526 419 871 8 63 15 141 15 173 l0 59 -62 32 c-50 25
-100 70 -238 210 -96 98 -197 192 -225 209 -127 78 -401 127 -616 109z m231
-144 c88 -28 174 -68 184 -84 3 -5 -101 -44 -232 -86 -535 -174 -805 -313
-1034 -534 l-58 -55 0 79 c1 185 47 292 190 436 107 108 201 170 336 218 142
52 203 61 374 57 137 -3 165 -6 240 -31z m360 -190 c35 -18 68 -78 111 -203
17 -48 46 -116 65 -150 38 -71 38 -94 -4 -110 -103 -41 -197 -18 -283 67 -79
80 -102 144 -97 271 6 133 11 140 104 140 48 0 86 -6 104 -15z m-375 -192 c0
-119 2 -132 28 -188 47 -101 148 -192 262 -235 83 -32 225 -32 307 -1 73 28
138 78 177 137 28 42 31 45 31 22 0 -14 -10 -57 -21 -94 -82 -265 -304 -479
-702 -675 -312 -153 -738 -264 -1047 -272 l-84 -2 -28 98 c-53 190 -58 380
-13 508 8 23 15 43 15 45 0 2 -36 4 -80 4 -44 0 -80 4 -80 9 0 23 92 144 165
216 192 193 497 384 760 475 76 27 266 77 300 79 6 1 10 -48 10 -126z m743 -5
c29 -32 61 -106 54 -130 -8 -34 -48 -41 -100 -18 -97 43 -105 76 -34 132 26
20 50 37 53 38 3 0 15 -10 27 -22z m-274 -894 c29 -29 18 -67 -45 -160 -154
-225 -324 -381 -524 -482 -107 -54 -167 -73 -250 -81 -159 -14 -298 19 -420
100 -64 43 -145 124 -134 133 2 2 51 8 109 15 459 53 887 218 1165 449 54 45
75 51 99 26z"/>
<path d="M4988 2784 c-85 -20 -168 -66 -218 -121 l-45 -48 28 -3 c41 -5 163
15 232 39 72 23 148 77 170 119 l16 30 -63 -1 c-35 0 -89 -7 -120 -15z"/>
</g>
</svg>
