<svg xmlns="http://www.w3.org/2000/svg" xmlns:xlink="http://www.w3.org/1999/xlink" width="500" zoomAndPan="magnify" viewBox="0 0 375 374.999991" height="500" preserveAspectRatio="xMidYMid meet" version="1.0"><defs><g/><clipPath id="dc332bcab3"><path d="M 37.5 121 L 127.148438 121 L 127.148438 232 L 37.5 232 Z M 37.5 121 " clip-rule="nonzero"/></clipPath><clipPath id="623e172760"><path d="M 52 141.292969 L 134.980469 141.292969 L 134.980469 207.292969 L 52 207.292969 Z M 52 141.292969 " clip-rule="nonzero"/></clipPath></defs><g clip-path="url(#dc332bcab3)"><path fill="#b43737" d="M 37.816406 176.160156 C 37.992188 172.613281 40.355469 169.546875 43.269531 167.695312 C 66.226562 153.015625 89.175781 138.320312 112.140625 123.652344 C 114.792969 121.90625 118.167969 120.84375 121.296875 121.828125 C 125.128906 122.917969 127.121094 127.078125 126.972656 130.839844 C 127.007812 161.34375 127 191.84375 127.027344 222.351562 C 127.070312 225.671875 125.675781 229.351562 122.535156 230.882812 C 119.277344 232.566406 115.34375 231.5625 112.410156 229.671875 C 89.433594 215.042969 66.464844 200.394531 43.496094 185.757812 C 40.207031 183.761719 37.527344 180.15625 37.816406 176.160156 Z M 37.816406 176.160156 " fill-opacity="1" fill-rule="nonzero"/></g><g clip-path="url(#623e172760)"><path fill="#fffcef" d="M 134.238281 171.632812 L 133.269531 168.902344 C 132.738281 167.40625 131.066406 166.175781 129.570312 166.175781 L 126.136719 166.175781 C 123.582031 159.042969 120.5 150.414062 119.53125 148.386719 C 118.125 145.21875 113.632812 143.808594 111.167969 143.105469 C 111.167969 143.105469 107.027344 141.519531 93.203125 141.519531 C 79.378906 141.519531 75.328125 143.105469 75.328125 143.105469 C 72.425781 144.074219 68.375 145.480469 66.789062 148.476562 C 65.996094 149.972656 62.828125 158.777344 60.273438 166.175781 L 56.925781 166.175781 C 55.429688 166.175781 53.757812 167.40625 53.230469 168.902344 L 52.261719 171.632812 C 51.730469 173.128906 52.523438 174.363281 54.019531 174.363281 L 57.457031 174.363281 C 57.015625 175.597656 56.75 176.300781 56.75 176.300781 C 56.488281 176.742188 56.308594 178.765625 56.308594 179.382812 L 56.308594 204.300781 C 56.308594 205.886719 57.632812 207.207031 59.214844 207.207031 L 69.78125 207.207031 C 71.367188 207.207031 72.6875 205.886719 72.6875 204.300781 L 72.6875 199.019531 L 113.808594 199.019531 L 113.808594 204.300781 C 113.808594 205.886719 115.128906 207.207031 116.714844 207.207031 L 127.367188 207.207031 C 128.953125 207.207031 130.273438 205.886719 130.273438 204.300781 L 130.273438 179.382812 C 130.273438 178.855469 130.097656 176.742188 129.835938 176.300781 C 129.835938 176.300781 129.570312 175.597656 129.128906 174.363281 L 132.476562 174.363281 C 133.882812 174.363281 134.675781 173.128906 134.238281 171.632812 Z M 72.6875 186.953125 L 69.167969 184.578125 C 62.648438 184.050781 61.859375 186.339844 60.449219 183.871094 L 60.449219 180.878906 C 60.449219 177.972656 62.121094 177.886719 63.972656 177.886719 C 65.730469 177.886719 69.253906 179.382812 71.632812 180.4375 C 74.183594 181.582031 76.035156 180.613281 77.003906 184.402344 C 76.914062 186.164062 75.945312 186.953125 72.6875 186.953125 Z M 66.523438 167.320312 C 68.726562 158.335938 72.425781 152.085938 72.953125 150.589844 C 73.304688 149.53125 72.425781 147.59375 93.292969 147.59375 C 114.160156 147.59375 113.015625 150.414062 113.105469 150.5 C 114.074219 152.527344 117.945312 159.128906 119.972656 167.320312 C 119.972656 167.320312 112.136719 168.375 94.261719 168.375 C 76.386719 168.375 66.523438 167.320312 66.523438 167.320312 Z M 109.582031 184.402344 C 113.71875 179.292969 112.398438 181.582031 114.953125 180.4375 C 117.242188 179.382812 120.851562 177.886719 122.613281 177.886719 C 124.464844 177.886719 126.136719 177.972656 126.136719 180.878906 L 126.136719 183.871094 C 124.816406 186.25 123.671875 184.136719 117.066406 184.753906 L 113.808594 186.867188 C 110.550781 186.953125 108.4375 185.722656 109.582031 184.402344 Z M 109.582031 184.402344 " fill-opacity="1" fill-rule="nonzero"/></g><g fill="#030009" fill-opacity="1"><g transform="translate(142.82891, 207.382954)"><g><path d="M 32.078125 0 L 4.6875 0 L 4.6875 -50.984375 L 32.078125 -50.984375 L 32.078125 -41.953125 L 14.140625 -41.953125 L 14.140625 -29.953125 L 31.328125 -29.953125 L 31.328125 -20.90625 L 14.140625 -20.90625 L 14.140625 -9.03125 L 32.078125 -9.03125 Z M 32.078125 0 "/></g></g></g><g fill="#030009" fill-opacity="1"><g transform="translate(178.711011, 207.382954)"><g><path d="M 33.125 0 L 1.234375 0 L 1.234375 -8 L 20.5625 -41.953125 L 2.28125 -41.953125 L 2.28125 -50.984375 L 31.8125 -50.984375 L 31.8125 -42.5 L 12.625 -9.03125 L 33.125 -9.03125 Z M 33.125 0 "/></g></g></g><g fill="#030009" fill-opacity="1"><g transform="translate(213.213032, 207.382954)"><g><path d="M 47.890625 -50.984375 L 28.15625 0 L 20.421875 0 L 0.546875 -50.984375 L 10.484375 -50.984375 L 24.21875 -12.21875 L 37.953125 -50.984375 Z M 47.890625 -50.984375 "/></g></g></g><g fill="#030009" fill-opacity="1"><g transform="translate(261.515851, 207.382954)"><g><path d="M 32.078125 0 L 4.6875 0 L 4.6875 -50.984375 L 32.078125 -50.984375 L 32.078125 -41.953125 L 14.140625 -41.953125 L 14.140625 -29.953125 L 31.328125 -29.953125 L 31.328125 -20.90625 L 14.140625 -20.90625 L 14.140625 -9.03125 L 32.078125 -9.03125 Z M 32.078125 0 "/></g></g></g><g fill="#030009" fill-opacity="1"><g transform="translate(297.397952, 207.382954)"><g><path d="M 37.265625 -35.265625 C 37.265625 -32.316406 36.664062 -29.632812 35.46875 -27.21875 C 34.269531 -24.800781 32.632812 -22.953125 30.5625 -21.671875 C 29.132812 -20.796875 27.453125 -20.195312 25.515625 -19.875 C 23.585938 -19.550781 20.8125 -19.390625 17.1875 -19.390625 L 14.140625 -19.390625 L 14.140625 0 L 4.6875 0 L 4.6875 -50.984375 L 17.3125 -50.984375 C 20.71875 -50.984375 23.382812 -50.8125 25.3125 -50.46875 C 27.25 -50.125 28.929688 -49.515625 30.359375 -48.640625 C 32.566406 -47.304688 34.269531 -45.476562 35.46875 -43.15625 C 36.664062 -40.832031 37.265625 -38.203125 37.265625 -35.265625 Z M 27.734375 -35.125 C 27.734375 -37.832031 26.90625 -39.644531 25.25 -40.5625 C 23.59375 -41.488281 20.945312 -41.953125 17.3125 -41.953125 L 14.140625 -41.953125 L 14.140625 -28.421875 L 16.90625 -28.421875 C 19.757812 -28.421875 21.96875 -28.675781 23.53125 -29.1875 C 25.09375 -29.695312 26.179688 -30.441406 26.796875 -31.421875 C 27.421875 -32.410156 27.734375 -33.644531 27.734375 -35.125 Z M 27.734375 -35.125 "/></g></g></g></svg>