<svg xmlns="http://www.w3.org/2000/svg" xmlns:xlink="http://www.w3.org/1999/xlink" width="336" zoomAndPan="magnify" viewBox="0 0 252 143.999998" height="192" preserveAspectRatio="xMidYMid meet" version="1.0"><defs><g/><clipPath id="1c1a6d2356"><rect x="0" width="155" y="0" height="125"/></clipPath><clipPath id="bb6024c9f8"><path d="M 95.382812 61.488281 L 107.382812 61.488281 L 107.382812 69.738281 L 95.382812 69.738281 Z M 95.382812 61.488281 " clip-rule="nonzero"/></clipPath><clipPath id="68f6a62b48"><path d="M 148.042969 61.488281 L 160 61.488281 L 160 69.738281 L 148.042969 69.738281 Z M 148.042969 61.488281 " clip-rule="nonzero"/></clipPath><clipPath id="91f4c96d60"><path d="M 4 22 L 57.601562 22 L 57.601562 82 L 4 82 Z M 4 22 " clip-rule="nonzero"/></clipPath><clipPath id="9201ec414b"><rect x="0" width="58" y="0" height="98"/></clipPath></defs><g transform="matrix(1, 0, 0, 1, 26, -0.000000000000008916)"><g clip-path="url(#1c1a6d2356)"><g fill="#5170ff" fill-opacity="1"><g transform="translate(0.47852, 97.07896)"><g><path d="M 25.953125 1.015625 C 20.367188 1.015625 15.820312 0.0546875 12.3125 -1.859375 C 8.8125 -3.785156 6.304688 -6.0625 4.796875 -8.6875 C 3.285156 -11.3125 2.53125 -13.769531 2.53125 -16.0625 L 17.375 -16.0625 C 17.375 -14.644531 18.097656 -13.378906 19.546875 -12.265625 C 20.992188 -11.160156 23.128906 -10.609375 25.953125 -10.609375 C 28.710938 -10.609375 30.75 -11.023438 32.0625 -11.859375 C 33.375 -12.703125 34.03125 -13.734375 34.03125 -14.953125 C 34.03125 -16.222656 33.59375 -17.226562 32.71875 -17.96875 C 31.84375 -18.71875 30.296875 -19.257812 28.078125 -19.59375 L 20.40625 -20.8125 C 8.625 -22.625 2.734375 -27.738281 2.734375 -36.15625 C 2.734375 -39.125 3.609375 -41.851562 5.359375 -44.34375 C 7.109375 -46.832031 9.695312 -48.816406 13.125 -50.296875 C 16.5625 -51.773438 20.671875 -52.515625 25.453125 -52.515625 C 30.296875 -52.515625 34.4375 -51.65625 37.875 -49.9375 C 41.3125 -48.226562 43.90625 -46.078125 45.65625 -43.484375 C 47.40625 -40.890625 48.28125 -38.347656 48.28125 -35.859375 L 33.53125 -35.859375 C 33.53125 -37.203125 32.804688 -38.378906 31.359375 -39.390625 C 29.910156 -40.398438 27.941406 -40.90625 25.453125 -40.90625 C 23.023438 -40.90625 21.15625 -40.445312 19.84375 -39.53125 C 18.53125 -38.625 17.875 -37.566406 17.875 -36.359375 C 17.875 -34.410156 19.828125 -33.128906 23.734375 -32.515625 L 31.8125 -31.3125 C 43.332031 -29.625 49.09375 -24.238281 49.09375 -15.15625 C 49.09375 -12.1875 48.234375 -9.472656 46.515625 -7.015625 C 44.796875 -4.554688 42.203125 -2.601562 38.734375 -1.15625 C 35.265625 0.289062 31.003906 1.015625 25.953125 1.015625 Z M 25.953125 1.015625 "/></g></g></g><g fill="#5170ff" fill-opacity="1"><g transform="translate(44.30697, 97.07896)"><g><path d="M 30.609375 1.015625 C 25.484375 1.015625 20.867188 -0.144531 16.765625 -2.46875 C 12.660156 -4.789062 9.425781 -7.988281 7.0625 -12.0625 C 4.707031 -16.144531 3.53125 -20.707031 3.53125 -25.75 C 3.53125 -30.800781 4.707031 -35.363281 7.0625 -39.4375 C 9.425781 -43.507812 12.660156 -46.707031 16.765625 -49.03125 C 20.867188 -51.351562 25.484375 -52.515625 30.609375 -52.515625 C 35.453125 -52.515625 39.875 -51.367188 43.875 -49.078125 C 47.882812 -46.796875 51.035156 -43.648438 53.328125 -39.640625 C 55.617188 -35.640625 56.765625 -31.210938 56.765625 -26.359375 C 56.765625 -24.546875 56.59375 -22.863281 56.25 -21.3125 L 18.6875 -21.3125 C 19.09375 -18.476562 20.40625 -16.101562 22.625 -14.1875 C 24.84375 -12.269531 27.503906 -11.3125 30.609375 -11.3125 C 32.890625 -11.3125 34.835938 -11.75 36.453125 -12.625 C 38.078125 -13.5 39.289062 -14.410156 40.09375 -15.359375 L 55.453125 -15.359375 C 54.773438 -13.066406 53.425781 -10.671875 51.40625 -8.171875 C 49.382812 -5.679688 46.609375 -3.523438 43.078125 -1.703125 C 39.546875 0.109375 35.390625 1.015625 30.609375 1.015625 Z M 41.71875 -30.5 C 41.3125 -33.332031 40.097656 -35.691406 38.078125 -37.578125 C 36.054688 -39.460938 33.566406 -40.40625 30.609375 -40.40625 C 27.441406 -40.40625 24.8125 -39.460938 22.71875 -37.578125 C 20.632812 -35.691406 19.289062 -33.332031 18.6875 -30.5 Z M 41.71875 -30.5 "/></g></g></g><g fill="#5170ff" fill-opacity="1"><g transform="translate(96.315619, 97.07896)"><g><path d="M 30.609375 1.015625 C 25.484375 1.015625 20.867188 -0.144531 16.765625 -2.46875 C 12.660156 -4.789062 9.425781 -7.988281 7.0625 -12.0625 C 4.707031 -16.144531 3.53125 -20.707031 3.53125 -25.75 C 3.53125 -30.800781 4.707031 -35.363281 7.0625 -39.4375 C 9.425781 -43.507812 12.660156 -46.707031 16.765625 -49.03125 C 20.867188 -51.351562 25.484375 -52.515625 30.609375 -52.515625 C 35.453125 -52.515625 39.875 -51.367188 43.875 -49.078125 C 47.882812 -46.796875 51.035156 -43.648438 53.328125 -39.640625 C 55.617188 -35.640625 56.765625 -31.210938 56.765625 -26.359375 C 56.765625 -24.546875 56.59375 -22.863281 56.25 -21.3125 L 18.6875 -21.3125 C 19.09375 -18.476562 20.40625 -16.101562 22.625 -14.1875 C 24.84375 -12.269531 27.503906 -11.3125 30.609375 -11.3125 C 32.890625 -11.3125 34.835938 -11.75 36.453125 -12.625 C 38.078125 -13.5 39.289062 -14.410156 40.09375 -15.359375 L 55.453125 -15.359375 C 54.773438 -13.066406 53.425781 -10.671875 51.40625 -8.171875 C 49.382812 -5.679688 46.609375 -3.523438 43.078125 -1.703125 C 39.546875 0.109375 35.390625 1.015625 30.609375 1.015625 Z M 41.71875 -30.5 C 41.3125 -33.332031 40.097656 -35.691406 38.078125 -37.578125 C 36.054688 -39.460938 33.566406 -40.40625 30.609375 -40.40625 C 27.441406 -40.40625 24.8125 -39.460938 22.71875 -37.578125 C 20.632812 -35.691406 19.289062 -33.332031 18.6875 -30.5 Z M 41.71875 -30.5 "/></g></g></g></g></g><g clip-path="url(#bb6024c9f8)"><path fill="#5170ff" d="M 107.277344 65.664062 C 107.277344 65.941406 107.238281 66.210938 107.164062 66.480469 C 107.085938 66.75 106.972656 67.011719 106.824219 67.265625 C 106.675781 67.515625 106.492188 67.757812 106.277344 67.984375 C 106.058594 68.214844 105.8125 68.425781 105.535156 68.617188 C 105.261719 68.8125 104.960938 68.984375 104.632812 69.136719 C 104.308594 69.289062 103.96875 69.417969 103.605469 69.523438 C 103.246094 69.628906 102.875 69.707031 102.492188 69.761719 C 102.109375 69.8125 101.722656 69.839844 101.332031 69.839844 C 100.941406 69.839844 100.554688 69.8125 100.171875 69.761719 C 99.789062 69.707031 99.414062 69.628906 99.054688 69.523438 C 98.695312 69.417969 98.351562 69.289062 98.027344 69.136719 C 97.703125 68.984375 97.402344 68.8125 97.125 68.617188 C 96.847656 68.425781 96.601562 68.214844 96.386719 67.984375 C 96.167969 67.757812 95.984375 67.515625 95.835938 67.265625 C 95.6875 67.011719 95.574219 66.75 95.496094 66.480469 C 95.421875 66.210938 95.382812 65.941406 95.382812 65.664062 C 95.382812 65.390625 95.421875 65.121094 95.496094 64.851562 C 95.574219 64.582031 95.6875 64.320312 95.835938 64.066406 C 95.984375 63.816406 96.167969 63.574219 96.386719 63.347656 C 96.601562 63.117188 96.847656 62.90625 97.125 62.714844 C 97.402344 62.519531 97.703125 62.347656 98.027344 62.195312 C 98.351562 62.042969 98.695312 61.914062 99.054688 61.808594 C 99.414062 61.703125 99.789062 61.625 100.171875 61.570312 C 100.554688 61.519531 100.941406 61.492188 101.332031 61.492188 C 101.722656 61.492188 102.109375 61.519531 102.492188 61.570312 C 102.875 61.625 103.246094 61.703125 103.605469 61.808594 C 103.96875 61.914062 104.308594 62.042969 104.632812 62.195312 C 104.960938 62.347656 105.261719 62.519531 105.535156 62.714844 C 105.8125 62.90625 106.058594 63.117188 106.277344 63.347656 C 106.492188 63.574219 106.675781 63.816406 106.824219 64.066406 C 106.972656 64.320312 107.085938 64.582031 107.164062 64.851562 C 107.238281 65.121094 107.277344 65.390625 107.277344 65.664062 Z M 107.277344 65.664062 " fill-opacity="1" fill-rule="nonzero"/></g><g clip-path="url(#68f6a62b48)"><path fill="#5170ff" d="M 159.9375 65.664062 C 159.9375 65.941406 159.898438 66.210938 159.824219 66.480469 C 159.746094 66.75 159.632812 67.011719 159.484375 67.265625 C 159.335938 67.515625 159.152344 67.757812 158.933594 67.984375 C 158.71875 68.214844 158.472656 68.425781 158.195312 68.617188 C 157.917969 68.8125 157.617188 68.984375 157.292969 69.136719 C 156.96875 69.289062 156.625 69.417969 156.265625 69.523438 C 155.90625 69.628906 155.535156 69.707031 155.152344 69.761719 C 154.765625 69.8125 154.378906 69.839844 153.988281 69.839844 C 153.601562 69.839844 153.214844 69.8125 152.828125 69.761719 C 152.445312 69.707031 152.074219 69.628906 151.714844 69.523438 C 151.351562 69.417969 151.011719 69.289062 150.6875 69.136719 C 150.363281 68.984375 150.0625 68.8125 149.785156 68.617188 C 149.507812 68.425781 149.261719 68.214844 149.046875 67.984375 C 148.828125 67.757812 148.644531 67.515625 148.496094 67.265625 C 148.347656 67.011719 148.234375 66.75 148.15625 66.480469 C 148.082031 66.210938 148.042969 65.941406 148.042969 65.664062 C 148.042969 65.390625 148.082031 65.121094 148.15625 64.851562 C 148.234375 64.582031 148.347656 64.320312 148.496094 64.066406 C 148.644531 63.816406 148.828125 63.574219 149.046875 63.347656 C 149.261719 63.117188 149.507812 62.90625 149.785156 62.714844 C 150.0625 62.519531 150.363281 62.347656 150.6875 62.195312 C 151.011719 62.042969 151.351562 61.914062 151.714844 61.808594 C 152.074219 61.703125 152.445312 61.625 152.828125 61.570312 C 153.214844 61.519531 153.601562 61.492188 153.988281 61.492188 C 154.378906 61.492188 154.765625 61.519531 155.152344 61.570312 C 155.535156 61.625 155.90625 61.703125 156.265625 61.808594 C 156.625 61.914062 156.96875 62.042969 157.292969 62.195312 C 157.617188 62.347656 157.917969 62.519531 158.195312 62.714844 C 158.472656 62.90625 158.71875 63.117188 158.933594 63.347656 C 159.152344 63.574219 159.335938 63.816406 159.484375 64.066406 C 159.632812 64.320312 159.746094 64.582031 159.824219 64.851562 C 159.898438 65.121094 159.9375 65.390625 159.9375 65.664062 Z M 159.9375 65.664062 " fill-opacity="1" fill-rule="nonzero"/></g><g transform="matrix(1, 0, 0, 1, 174, 19)"><g clip-path="url(#9201ec414b)"><g clip-path="url(#91f4c96d60)"><g fill="#5170ff" fill-opacity="1"><g transform="translate(1.07841, 76.650726)"><g><path d="M 56.25 5.203125 L 42.1875 5.203125 L 37.21875 -0.53125 C 34.519531 0.332031 31.796875 0.765625 29.046875 0.765625 C 24.253906 0.765625 19.867188 -0.414062 15.890625 -2.78125 C 11.921875 -5.15625 8.789062 -8.429688 6.5 -12.609375 C 4.207031 -16.785156 3.0625 -21.5 3.0625 -26.75 C 3.0625 -32 4.207031 -36.710938 6.5 -40.890625 C 8.789062 -45.066406 11.921875 -48.335938 15.890625 -50.703125 C 19.867188 -53.078125 24.253906 -54.265625 29.046875 -54.265625 C 33.828125 -54.265625 38.203125 -53.078125 42.171875 -50.703125 C 46.148438 -48.335938 49.285156 -45.066406 51.578125 -40.890625 C 53.878906 -36.710938 55.03125 -32 55.03125 -26.75 C 55.03125 -22.570312 54.273438 -18.695312 52.765625 -15.125 C 51.265625 -11.5625 49.164062 -8.53125 46.46875 -6.03125 Z M 15.28125 -26.75 C 15.28125 -23.644531 15.890625 -20.90625 17.109375 -18.53125 C 18.335938 -16.164062 19.992188 -14.332031 22.078125 -13.03125 C 24.171875 -11.726562 26.492188 -11.078125 29.046875 -11.078125 C 29.648438 -11.078125 30.082031 -11.101562 30.34375 -11.15625 L 25.140625 -17.046875 L 37.21875 -17.046875 L 38.75 -15.28125 C 41.445312 -18.238281 42.796875 -22.0625 42.796875 -26.75 C 42.796875 -29.851562 42.179688 -32.585938 40.953125 -34.953125 C 39.734375 -37.328125 38.078125 -39.164062 35.984375 -40.46875 C 33.898438 -41.769531 31.585938 -42.421875 29.046875 -42.421875 C 26.492188 -42.421875 24.171875 -41.769531 22.078125 -40.46875 C 19.992188 -39.164062 18.335938 -37.328125 17.109375 -34.953125 C 15.890625 -32.585938 15.28125 -29.851562 15.28125 -26.75 Z M 15.28125 -26.75 "/></g></g></g></g></g></g></svg>